<svg width="102" height="88" viewBox="0 0 102 88" fill="none" xmlns="http://www.w3.org/2000/svg">
<path fill-rule="evenodd" clip-rule="evenodd" d="M91.2839 52.3813V55.634C91.2839 57.7315 90.8254 59.3004 89.8914 60.3348C88.9688 61.3577 87.7253 61.8749 86.1781 61.8749C84.6595 61.8749 83.416 61.3462 82.4819 60.2945C81.5479 59.2486 81.0723 57.6913 81.0723 55.6512V48.0253H76.5166C77.9263 48.1517 79.4219 48.2149 81.0092 48.2149H67.9954C66.3451 48.2782 62.0473 48.1115 59.7494 48.0023C59.7178 47.9994 59.6863 47.998 59.6548 47.9966C59.6233 47.9951 59.5918 47.9937 59.5603 47.9908C59.3167 47.9792 59.0993 47.9676 58.915 47.9577L58.9123 47.9576L58.9117 47.9575L58.7643 47.9497L58.672 47.9448C58.3282 47.9219 57.9901 47.8931 57.6635 47.8472H57.652C57.3082 47.8414 57.0045 47.7782 56.7352 47.6805C52.0935 46.6748 49.5148 43.0429 53.9444 37.8823C54.7897 36.7467 55.7426 35.4229 56.7655 34.0018C59.3143 30.461 62.2981 26.3159 65.136 22.9696C65.4511 22.5788 65.7892 22.1708 66.1445 21.7513L72.2875 13.5105L72.7288 12.9129L72.5397 13.068C73.5986 11.6485 74.5863 10.2634 75.517 8.95809C78.0263 5.43905 80.1219 2.50001 82.0865 1.02866C82.1123 1.00855 82.1395 0.988435 82.1668 0.968321C82.194 0.948208 82.2212 0.928094 82.247 0.907981C82.2499 0.905108 82.2542 0.902234 82.2585 0.899361C82.2628 0.896488 82.2671 0.893615 82.2699 0.890742C82.4418 0.770061 82.6137 0.660872 82.7914 0.563178C83.4389 0.189641 84.0807 0 84.7225 0.0172405C84.8372 0.00574711 84.9518 0 85.0721 0C86.4302 0 87.5591 0.258602 88.4702 0.77006L88.4704 0.770151L88.4704 0.770184C88.5792 0.833356 88.6881 0.896533 88.7911 0.965448C88.8043 0.974231 88.8174 0.982175 88.8302 0.989921L88.8303 0.989941L88.8303 0.989969L88.8304 0.990004L88.8305 0.990056C88.8511 1.00253 88.8709 1.01451 88.8886 1.02866C89.0261 1.12636 89.1636 1.23554 89.2954 1.35048C89.3032 1.36226 89.3138 1.37135 89.3233 1.3796L89.3303 1.3858L89.3355 1.39071C89.4673 1.50564 89.5934 1.63207 89.7137 1.76999C89.7366 1.79291 89.7538 1.81584 89.7709 1.83876L89.771 1.83895C89.857 1.93664 89.9372 2.04008 90.0117 2.14927C90.43 2.72969 90.7395 3.43079 90.9515 4.25257C90.9661 4.29636 90.9765 4.34427 90.9863 4.38933L90.9864 4.38962L90.9916 4.41348C91.002 4.46305 91.0136 4.51144 91.0253 4.56026L91.0255 4.56085L91.0255 4.56104L91.0255 4.56119C91.0395 4.61959 91.0537 4.67862 91.0661 4.74104C91.3297 5.99957 91.4214 7.59716 91.2781 9.60851V17.424C91.2839 20.602 91.2896 24.0902 91.2896 26.6418C91.2896 26.7165 91.2839 26.7797 91.2781 26.8544V31.9632L91.2896 37.6295C91.2896 37.9053 91.2839 38.1697 91.2781 38.4283V38.865H93.0374C93.5703 38.865 94.0803 38.888 94.5617 38.9225H94.6075C95.9943 39.0317 97.1576 39.2903 98.0916 39.7156C99.358 40.2902 99.9884 41.5488 99.9884 43.4796C99.9884 45.06 99.4726 46.2036 98.4412 46.9334C97.3925 47.646 95.8453 48.0081 93.7823 48.0081H91.2896L91.2953 52.2204C91.2953 52.2779 91.2896 52.3296 91.2839 52.3813ZM81.0149 15.1397C81.0192 15.1469 81.0236 15.1541 81.0264 15.1598C81.0264 15.1311 81.0264 15.1081 81.0322 15.0794L81.0035 15.1196C81.0064 15.1254 81.0107 15.1325 81.0149 15.1397ZM81.0092 16.3494C81.0035 15.8609 81.0092 15.4989 81.0207 15.2575H80.9806C80.9863 15.6253 80.9978 15.9931 81.0092 16.3494ZM80.9658 15.8853L80.9634 15.2575C80.9557 15.2575 80.9487 15.2582 80.9417 15.2588C80.9277 15.2601 80.9137 15.2614 80.8946 15.2575L72.2818 26.9406L63.6346 38.6639L63.689 38.6619L63.73 38.6602L63.8055 38.6569L63.8065 38.6569C63.9211 38.6518 64.0357 38.6467 64.1503 38.6467C68.0585 38.6467 74.849 38.7041 81.0379 38.7673C81.0218 30.5942 80.9806 19.7661 80.966 15.9386L80.9659 15.9201L80.9659 15.9091L80.9658 15.8987L80.9658 15.8853ZM8.52499 47.8751C8.18116 47.8693 7.87745 47.8061 7.60812 47.7084C2.96648 46.7027 0.387792 43.0708 4.81741 37.9103C5.67123 36.7647 6.63489 35.4268 7.66968 33.9901C10.2116 30.4609 13.1826 26.3359 16.0089 23.0033C16.3241 22.6125 16.6622 22.2045 17.0175 21.785L23.1605 13.5442L23.6017 12.9466L23.4126 13.1017C24.4789 11.6745 25.4726 10.2821 26.4086 8.9706L26.4087 8.97048L26.4087 8.97045L26.4087 8.97043L26.4087 8.97041C28.9134 5.46085 31.0046 2.53074 32.9652 1.06237C32.991 1.0423 33.0167 1.02365 33.0425 1.00501L33.0426 1.00491C33.0684 0.98623 33.0942 0.967553 33.12 0.94744L33.12 0.947419C33.1257 0.941665 33.1372 0.930193 33.1486 0.924453C33.3091 0.809519 33.4695 0.706078 33.6357 0.61413C34.2947 0.229101 34.948 0.0337131 35.5955 0.0509532C35.7101 0.0394598 35.8247 0.0337127 35.9451 0.0337127C37.3032 0.0337127 38.4321 0.292315 39.3432 0.803772C39.4578 0.866986 39.5667 0.9302 39.6698 0.99916C39.683 1.00799 39.6963 1.01598 39.7091 1.02377C39.7298 1.03625 39.7496 1.04822 39.7673 1.06237C39.9048 1.16007 40.0423 1.26926 40.1741 1.38419C40.1819 1.39597 40.1925 1.40507 40.202 1.41332C40.2064 1.41714 40.2106 1.42078 40.2142 1.42442C40.346 1.53935 40.4721 1.66578 40.5924 1.8037L40.644 1.87266C40.7224 1.96176 40.7913 2.05565 40.8636 2.15431L40.8847 2.18298C41.303 2.76915 41.6124 3.47025 41.8245 4.28628C41.8302 4.31501 41.8374 4.34375 41.8445 4.37248C41.8517 4.40121 41.8589 4.42995 41.8646 4.45868C41.876 4.51327 41.8889 4.56643 41.9018 4.61959C41.9147 4.67274 41.9276 4.7259 41.9391 4.7805C42.2027 6.04477 42.2944 7.64236 42.1511 9.65371V17.4003C42.1568 20.5954 42.1626 24.1124 42.1626 26.6812C42.1626 26.7509 42.1576 26.8157 42.1522 26.8848L42.1511 26.8996V32.0084L42.1626 37.6747C42.1626 37.9505 42.1568 38.2149 42.1511 38.4735V38.9102H43.9103C44.4433 38.9102 44.9533 38.9332 45.4346 38.9677H45.4805C46.8672 39.0769 48.0305 39.3355 48.9646 39.7607C50.231 40.3354 50.8613 41.5939 50.8613 43.5248C50.8613 45.1052 50.3456 46.2488 49.3141 46.9786C48.2655 47.6912 46.7183 48.0532 44.6553 48.0532H42.1626L42.1683 52.2656C42.1683 52.323 42.1626 52.3747 42.1568 52.4265V55.6791C42.1568 57.7767 41.6984 59.3398 40.7643 60.3627C39.8417 61.3856 38.5982 61.9028 37.051 61.9028C35.5325 61.9028 34.289 61.3741 33.3549 60.3224C32.4208 59.2765 31.9452 57.7192 31.9452 55.6791V48.0532H27.3895C28.7992 48.1796 30.2949 48.2429 31.8822 48.2429H18.8684C17.218 48.3061 12.9202 48.1394 10.6223 48.0302C10.5909 48.0274 10.5595 48.0259 10.528 48.0245L10.5278 48.0245L10.5275 48.0245C10.4961 48.023 10.4647 48.0216 10.4332 48.0187C10.1899 48.0071 9.97267 47.9955 9.78845 47.9856L9.78772 47.9856L9.7876 47.9856L9.78518 47.9855L9.78465 47.9854C9.69698 47.9807 9.61685 47.9765 9.54501 47.9728C9.20118 47.9555 8.86309 47.921 8.53645 47.8751H8.52499ZM31.8879 15.1792L31.8943 15.19L31.8966 15.194L31.8994 15.1993C31.8994 15.1705 31.8994 15.1476 31.9051 15.1188L31.8765 15.1591C31.8793 15.1648 31.8836 15.172 31.8879 15.1792ZM31.8822 16.3946C31.8765 15.9119 31.8822 15.5441 31.8936 15.3027C31.8819 15.2988 31.8728 15.3002 31.8646 15.3015L31.8607 15.3021C31.8583 15.3025 31.8559 15.3027 31.8535 15.3027C31.8593 15.6705 31.8707 16.0383 31.8822 16.3946ZM31.8387 15.933L31.8363 15.3027C31.8211 15.2989 31.8058 15.3002 31.7905 15.3014C31.7829 15.3021 31.7752 15.3027 31.7676 15.3027L23.1548 26.9858L14.5076 38.7091C14.5648 38.7072 14.6221 38.7046 14.6794 38.702C14.794 38.6969 14.9087 38.6918 15.0233 38.6918C18.9314 38.6918 25.722 38.7493 31.9108 38.8125C31.8947 30.6132 31.8533 19.742 31.8388 15.9472L31.8388 15.9369L31.8387 15.933ZM14.1071 79.5801C12.9037 81.1144 10.898 81.9936 8.61159 81.9936H8.61129C8.5369 81.9936 8.4625 81.9936 8.3881 81.9879C5.17333 81.8787 2.58891 79.3962 2.29666 76.1838H15.7975V75.6724C15.7975 70.9831 12.8865 67.834 8.55429 67.834H8.37091C4.11321 67.9202 0.898438 71.2532 0.898438 75.5862C0.898438 79.9019 4.10748 83.2234 8.37091 83.3096H8.55429C11.2476 83.3096 13.7117 82.2235 15.1557 80.3961L15.2703 80.2524L14.2159 79.4192L14.1071 79.5801ZM2.29093 74.9483C2.53734 71.6497 5.07019 69.2247 8.38237 69.1442H8.55429C11.8951 69.1442 14.1988 71.4141 14.4624 74.9483H2.29093ZM28.433 68.1167H30.1463L23.6079 75.6507L30.175 83.2192H28.4559L22.7369 76.7254L17.0179 83.2192H15.3275L21.8945 75.6507L15.3275 68.1167H17.0409L22.7369 74.6336L28.433 68.1167ZM38.7137 67.8576C38.5591 67.8461 38.4102 67.8461 38.2555 67.8461H38.2552C36.1464 67.8461 34.0892 68.5013 32.6624 69.6046V68.1162H31.31V88.0001H32.6624V81.6556C34.158 82.7475 36.0834 83.3222 38.2552 83.3222C38.41 83.3222 38.5647 83.3164 38.7137 83.3107C42.851 83.0751 46.0944 79.673 46.0944 75.5698C46.0944 71.4781 42.8568 68.0875 38.7137 67.8576ZM44.7478 75.5698C44.7478 78.9661 42.1462 81.7188 38.6908 81.9774C38.5188 81.9889 38.3469 81.9947 38.175 81.9947C35.9172 81.9947 33.9632 81.2936 32.6624 80.0235V71.185C34.0434 69.8575 35.9459 69.1621 38.175 69.1621C38.3469 69.1621 38.5188 69.1679 38.6908 69.1794C42.1405 69.4495 44.7478 72.1907 44.7478 75.5698ZM49.4585 70.9426C50.4613 68.983 52.1747 67.8624 54.2606 67.8394C55.1258 67.8394 56.0312 68.0635 56.8793 68.483L57.0112 68.552L56.6731 69.8737L56.4725 69.776C55.7505 69.4255 54.9769 69.2473 54.1803 69.2473C51.4412 69.2473 49.4585 71.7874 49.4585 75.2929V83.2119H48.1061V68.1095H49.4585V70.9426ZM64.8446 67.8394H64.6612C60.4035 67.9256 57.1887 71.2587 57.1887 75.5918C57.1887 79.9076 60.3978 83.2293 64.6612 83.3155H64.8446C67.5379 83.3155 70.0077 82.2293 71.446 80.4018L71.5606 80.2582L70.5062 79.4249L70.3916 79.5686C69.1882 81.103 67.1826 81.9822 64.8962 81.9822C64.8217 81.9822 64.7472 81.9822 64.6727 81.9765C61.4579 81.8673 58.8735 79.3847 58.5812 76.1722H72.0821V75.6608C72.0878 70.9886 69.1768 67.8394 64.8446 67.8394ZM70.7526 74.9482H58.5812C58.8276 71.6495 61.3605 69.2244 64.6727 69.1439H64.8446C68.1911 69.1382 70.489 71.4139 70.7526 74.9482ZM74.6824 71.909C74.6824 73.4663 76.4817 74.1387 79.3871 74.7076C82.47 75.2995 85.318 76.2247 85.3008 78.9659C85.3008 79.9888 84.8711 83.3334 79.3126 83.3334C77.3585 83.3334 75.3586 82.8909 73.1925 81.9771L73.0148 81.9024L73.5535 80.7531L73.7139 80.8163C75.0491 81.3393 77.0892 82.0346 79.3412 82.0346C83.5301 82.0346 83.9828 79.9084 83.9828 78.9946C83.9828 77.3568 82.109 76.6328 79.0891 76.0064C76.1093 75.403 73.3529 74.4893 73.3529 71.9147C73.3529 69.5931 75.7253 67.8461 78.877 67.8461C80.7394 67.8461 82.5674 68.2311 84.3209 68.984L84.4871 69.0529L84.023 70.2195L83.8453 70.139C82.407 69.4782 80.7337 69.1449 78.8828 69.1449C76.4875 69.1449 74.6824 70.3344 74.6824 71.909ZM92.2635 74.7076C89.3582 74.1387 87.5588 73.4663 87.5588 71.909C87.5588 70.3344 89.3639 69.1449 91.7593 69.1449C93.6102 69.1449 95.2835 69.4782 96.7218 70.139L96.8995 70.2195L97.3636 69.0529L97.1974 68.984C95.4439 68.2311 93.6159 67.8461 91.7535 67.8461C88.6018 67.8461 86.2294 69.5931 86.2294 71.9147C86.2294 74.4893 88.9857 75.403 91.9655 76.0064C94.9855 76.6328 96.8593 77.3568 96.8593 78.9946C96.8593 79.9084 96.4066 82.0346 92.2177 82.0346C89.9656 82.0346 87.9256 81.3393 86.5904 80.8163L86.4299 80.7531L85.8913 81.9024L86.0689 81.9771C88.235 82.8909 90.235 83.3334 92.189 83.3334C97.7476 83.3334 98.1773 79.9888 98.1773 78.9659C98.1888 76.2247 95.3408 75.2995 92.2635 74.7076ZM98.5322 82.0466C98.5322 81.1902 99.2256 80.5005 100.074 80.5005C100.922 80.5005 101.615 81.196 101.615 82.0466C101.615 82.9029 100.922 83.5926 100.074 83.5926C99.2198 83.5926 98.5322 82.8972 98.5322 82.0466Z" fill="#807F80"/>
</svg>
