<svg width="175" height="72" viewBox="0 0 175 72" fill="none" xmlns="http://www.w3.org/2000/svg">
<path fill-rule="evenodd" clip-rule="evenodd" d="M41.851 71.9803C33.248 59.8498 23.7756 65.1952 11.2265 63.7417C7.06478 63.259 4.35104 60.4674 3.70425 58.1292C9.97186 62.2506 17.2716 62.1852 26.1973 61.2087C21.8241 58.8775 7.02444 64.4385 0.360404 51.4429C10.5922 61.1726 19.8587 57.5353 23.4293 58.7106C21.2747 54.6198 8.90361 61.2268 0.00292969 47.3841C6.96602 53.4292 14.3547 55.3779 21.3178 54.7353C8.49189 51.9339 2.8349 48.0351 0.837499 42.3683C6.89647 47.5135 11.5409 50.3134 19.9422 51.6821C18.0797 48.782 2.6207 47.9544 1.55523 35.5624C6.07721 43.5604 14.402 46.1016 21.6141 48.5761C14.0334 43.3378 3.02129 39.076 2.86829 27.6827C8.21231 37.5459 13.8902 41.0136 21.016 43.9206C16.9711 38.6768 6.42216 33.7152 5.25655 22.3095C10.0581 29.6133 14.6747 35.2884 23.3987 40.6922C22.3012 35.4289 8.17615 25.9537 11.3447 14.4297C13.4937 22.1898 17.8085 28.6077 25.9205 36.3678C19.2119 23.9995 15.0641 16.4383 16.718 7.86166C20.3623 18.0253 24.6047 28.9262 28.8971 31.384C23.9133 17.0141 22.4473 9.14968 24.4795 3.08514C27.4839 14.9026 29.5203 25.2583 33.1952 31.0265C33.9699 22.354 30.3521 16.7568 32.7181 1.05714C33.7001 6.80593 34.2119 12.7815 38.8076 30.071C40.9636 22.7379 40.5686 15.8193 40.5978 -0.0180664C44.9862 6.16192 43.6384 18.4996 43.822 31.9807C46.6971 24.3277 47.9017 14.8901 49.4484 1.74705C50.7406 11.5101 51.0647 22.2566 48.4789 32.22C53.7353 25.3195 56.2154 14.7997 59.224 4.04212C59.6858 12.8552 59.2087 22.2483 52.6573 34.2494C59.3255 28.0179 63.1854 18.2771 66.0299 7.26495C68.0746 16.1809 64.7808 26.25 55.0456 37.7128C60.4925 34.0087 65.8352 27.851 72.2391 14.9068C72.2196 21.9812 70.3252 29.669 59.1058 39.6226C65.4735 37.2343 71.8413 31.5036 78.2091 22.4291C77.6485 29.2753 70.773 36.1202 61.6123 42.9664C67.2053 41.1443 73.3713 39.2749 81.194 27.9219C81.3331 34.771 75.722 40.8911 63.7613 46.786C70.0623 44.9513 75.1921 44.7802 82.2692 34.9657C82.1079 43.5228 72.9624 47.5872 63.1646 51.3233C70.1749 49.7918 76.4718 48.8349 82.6253 41.8912C81.9507 48.2187 73.7872 51.9367 64.2648 54.4446C70.2445 54.318 77.8405 51.5277 82.866 47.2645C80.6404 56.9218 64.9547 56.3599 63.7613 58.1292C72.1946 58.0847 77.7375 56.2556 82.5057 52.3985C80.6724 58.7788 72.0138 61.2032 59.224 61.2338C68.2332 62.1504 75.8736 61.2992 81.0744 57.2932C79.5652 60.3672 78.0088 63.7013 68.8953 64.3384C61.5441 64.853 55.0567 63.1408 49.0116 65.593C45.8931 66.8588 43.6885 69.9119 41.851 71.9803Z" fill="#807F80"/>
<path fill-rule="evenodd" clip-rule="evenodd" d="M107.606 34.1478C107.599 33.2882 107.456 32.5037 107.177 31.7874C106.897 31.0711 106.521 30.4284 106.058 29.8707C105.587 29.3046 105.068 28.8122 104.493 28.4046C103.922 27.9873 103.336 27.6535 102.742 27.3948C102.148 27.1347 101.589 26.9566 101.056 26.862V26.7786C101.698 26.6576 102.346 26.4378 102.987 26.1109C103.63 25.791 104.215 25.3612 104.755 24.8229C105.286 24.2902 105.716 23.642 106.044 22.877C106.363 22.1133 106.535 21.2343 106.541 20.2314C106.541 18.853 106.174 17.6387 105.45 16.5885C104.734 15.53 103.663 14.7051 102.258 14.1043C100.844 13.5048 99.1063 13.2029 97.0449 13.189C96.0156 13.189 95.0461 13.2586 94.1253 13.3949C93.2114 13.5242 92.3796 13.7078 91.6285 13.9401C90.8788 14.1724 90.2445 14.4395 89.7188 14.7455V40.6158C90.6256 41.1068 91.7384 41.4893 93.0473 41.7619C94.3506 42.0276 95.8111 42.1639 97.4135 42.1708C98.874 42.1708 100.225 42.0206 101.46 41.7146C102.695 41.4002 103.772 40.9218 104.694 40.275C105.606 39.6337 106.324 38.8006 106.829 37.7852C107.341 36.7684 107.599 35.561 107.606 34.1478ZM102.899 20.5179C102.906 21.4373 102.77 22.2427 102.503 22.9257C102.23 23.6156 101.794 24.1872 101.194 24.6379C100.586 25.0955 99.7878 25.4363 98.7919 25.6617C97.796 25.887 96.5678 26.0024 95.1212 26.0024H93.2796V15.9737C93.8457 15.7692 94.4257 15.612 95.0197 15.5105C95.6122 15.4076 96.2743 15.3603 97.0045 15.3603C98.9352 15.3603 100.396 15.7901 101.399 16.6497C102.394 17.5093 102.891 18.7973 102.899 20.5179ZM103.799 34.1896C103.792 35.2119 103.63 36.0715 103.294 36.7879C102.961 37.4972 102.503 38.0703 101.91 38.5085C101.316 38.9438 100.62 39.2651 99.8282 39.4627C99.0381 39.6602 98.1785 39.7561 97.2507 39.7561C96.3967 39.7561 95.6539 39.7019 95.0197 39.599C94.3854 39.4905 93.8054 39.3263 93.2796 39.101V27.8858H95.1615C97.1881 27.8774 98.8392 28.1042 100.116 28.5451C101.385 28.9902 102.319 29.6801 102.919 30.6065C103.513 31.5356 103.806 32.7291 103.799 34.1896ZM128.073 40.4516V19.6987H124.47V38.7741C123.967 39.0788 123.392 39.3055 122.745 39.4557C122.104 39.599 121.353 39.6727 120.5 39.6727C119.491 39.6671 118.659 39.4627 118.011 39.0676C117.356 38.6712 116.871 38.1399 116.55 37.4569C116.236 36.7753 116.08 35.9964 116.08 35.1312V19.6987H112.476V35.0074C112.471 36.4888 112.736 37.7643 113.276 38.8423C113.814 39.9133 114.66 40.7437 115.813 41.3251C116.966 41.9121 118.46 42.2056 120.295 42.2112C121.482 42.2056 122.56 42.1221 123.53 41.9664C124.498 41.8022 125.365 41.5894 126.121 41.3251C126.879 41.0595 127.528 40.7729 128.073 40.4516ZM143.382 19.3301C142.08 19.3036 140.953 19.3106 139.992 19.3648C139.036 19.4191 138.198 19.5151 137.481 19.643C136.763 19.7807 136.124 19.9518 135.551 20.1563C134.977 20.3677 134.418 20.6056 133.886 20.8865V41.7619H137.488V22.4819C137.89 22.2232 138.366 22.0313 138.921 21.9089C139.473 21.7934 140.06 21.7461 140.68 21.7726C141.301 21.7934 141.916 21.895 142.521 22.073L143.382 19.3301ZM151.2 13.4769C151.193 13.1 151.099 12.7676 150.914 12.4671C150.73 12.1653 150.477 11.9219 150.164 11.7438C149.849 11.5672 149.502 11.4781 149.112 11.4712C148.71 11.4781 148.356 11.5672 148.034 11.7438C147.713 11.9219 147.461 12.1653 147.271 12.4671C147.087 12.7676 146.991 13.1 146.984 13.4769C146.991 13.8386 147.087 14.1655 147.271 14.459C147.461 14.7524 147.713 14.9917 148.034 15.1683C148.356 15.3464 148.71 15.4354 149.112 15.4424C149.502 15.4354 149.849 15.3464 150.164 15.1683C150.477 14.9917 150.73 14.7524 150.914 14.459C151.099 14.1655 151.193 13.8386 151.2 13.4769ZM150.914 19.6987H147.311V41.7619H150.914V19.6987ZM165.609 41.6395V39.3458C165.425 39.3875 165.247 39.4293 165.076 39.4627C164.907 39.4905 164.728 39.5099 164.545 39.5099C163.876 39.503 163.344 39.3611 162.934 39.0732C162.518 38.788 162.223 38.4055 162.034 37.927C161.849 37.4486 161.762 36.9117 161.762 36.3177V21.9506H165.609V19.6987H161.762V13.5173L158.159 14.6231V19.6987H155.621V21.9506H158.159V36.3998C158.159 37.0813 158.255 37.7504 158.453 38.4111C158.649 39.0676 158.964 39.6602 159.401 40.1915C159.831 40.7312 160.397 41.154 161.093 41.4754C161.794 41.7939 162.639 41.9594 163.645 41.9664C164.093 41.9594 164.484 41.9191 164.811 41.8509C165.139 41.7758 165.404 41.7076 165.609 41.6395ZM174.205 13.4769C174.197 13.1 174.102 12.7676 173.918 12.4671C173.733 12.1653 173.482 11.9219 173.167 11.7438C172.854 11.5672 172.505 11.4781 172.117 11.4712C171.715 11.4781 171.361 11.5672 171.039 11.7438C170.719 11.9219 170.466 12.1653 170.276 12.4671C170.091 12.7676 169.996 13.1 169.989 13.4769C169.996 13.8386 170.091 14.1655 170.276 14.459C170.466 14.7524 170.719 14.9917 171.039 15.1683C171.361 15.3464 171.715 15.4354 172.117 15.4424C172.505 15.4354 172.854 15.3464 173.167 15.1683C173.482 14.9917 173.733 14.7524 173.918 14.459C174.102 14.1655 174.197 13.8386 174.205 13.4769ZM173.918 19.6987H170.316V41.7619H173.918V19.6987Z" fill="#807F80"/>
<path fill-rule="evenodd" clip-rule="evenodd" d="M97.0783 57.9818C97.0852 57.6424 97.0449 57.2835 96.9628 56.901C96.878 56.5255 96.7194 56.1429 96.4788 55.7646C96.2423 55.3793 95.8918 55.0135 95.4328 54.6574C94.971 54.3013 94.3687 53.9758 93.619 53.6782C93.1502 53.4988 92.7204 53.2929 92.3365 53.0592C91.9526 52.8269 91.6494 52.5348 91.4199 52.1871C91.1918 51.8394 91.0735 51.4082 91.0694 50.8865C91.0694 50.3441 91.1695 49.8684 91.3628 49.472C91.5604 49.0728 91.8455 48.7584 92.2225 48.54C92.5994 48.3189 93.057 48.2076 93.5967 48.2034C93.9361 48.2076 94.2588 48.241 94.5579 48.3147C94.8611 48.3856 95.1309 48.4733 95.3785 48.5804C95.6219 48.6875 95.8361 48.7973 96.0142 48.9142L96.501 47.6276C96.1686 47.3911 95.736 47.195 95.2116 47.0434C94.6872 46.8917 94.0738 46.8111 93.3755 46.8069C92.7093 46.8111 92.1112 46.9251 91.5798 47.1505C91.0513 47.3744 90.6006 47.6846 90.2264 48.0824C89.8537 48.4774 89.5685 48.9309 89.3738 49.4455C89.1735 49.9574 89.0775 50.5054 89.0733 51.0855C89.0706 51.4596 89.122 51.8324 89.2222 52.2052C89.3209 52.5793 89.4934 52.9452 89.7354 53.2998C89.9788 53.6545 90.3085 53.9898 90.73 54.3083C91.15 54.6226 91.6744 54.9078 92.3115 55.1637C92.943 55.4127 93.4548 55.6798 93.8485 55.9607C94.2393 56.2403 94.5231 56.5519 94.7053 56.8982C94.8861 57.246 94.9751 57.6452 94.971 58.0931C94.9682 58.6731 94.8527 59.1752 94.6204 59.6036C94.3882 60.0293 94.0585 60.3617 93.6301 60.5926C93.2031 60.8304 92.6982 60.9487 92.1112 60.9515C91.705 60.9487 91.3392 60.9153 91.0068 60.8485C90.6771 60.779 90.3836 60.6941 90.1263 60.5829C89.869 60.4758 89.6422 60.3645 89.4489 60.2435L88.9189 61.6608C89.1804 61.8319 89.4795 61.9794 89.8092 62.1059C90.1388 62.2311 90.5227 62.3299 90.9553 62.4008C91.3907 62.4676 91.8928 62.5038 92.4659 62.5038C93.1391 62.501 93.7553 62.3897 94.3158 62.1713C94.8792 61.9543 95.3674 61.6442 95.7777 61.2408C96.1908 60.8374 96.5094 60.3617 96.7347 59.8109C96.96 59.2587 97.0741 58.6508 97.0783 57.9818ZM108.91 62.2826V53.7463C108.914 53.3179 108.847 52.9006 108.718 52.4834C108.586 52.0689 108.366 51.6905 108.064 51.3525C107.761 51.0131 107.355 50.7391 106.844 50.5346C106.331 50.333 105.699 50.2245 104.941 50.2217C104.502 50.2217 104.058 50.2773 103.607 50.3955C103.161 50.5138 102.687 50.6988 102.191 50.9533V44.8999H100.241V62.2826H102.191V52.0619C102.554 51.8435 102.924 51.6891 103.297 51.5959C103.674 51.5041 104.079 51.4596 104.52 51.4638C105.151 51.4666 105.644 51.5806 106.001 51.7962C106.357 52.0132 106.608 52.2984 106.752 52.6531C106.896 53.0077 106.967 53.3917 106.96 53.8117V62.2826H108.91ZM121.318 56.3182C121.318 55.421 121.229 54.5962 121.05 53.8423C120.868 53.0884 120.588 52.4347 120.21 51.8769C119.834 51.3191 119.346 50.8865 118.759 50.5792C118.166 50.2676 117.461 50.1146 116.641 50.1104C115.839 50.1146 115.144 50.2676 114.557 50.5792C113.97 50.8865 113.489 51.3191 113.108 51.8769C112.728 52.4347 112.447 53.0884 112.262 53.8423C112.075 54.5962 111.985 55.421 111.985 56.3182C111.985 57.1987 112.073 58.0138 112.258 58.7607C112.44 59.5118 112.721 60.1656 113.099 60.7233C113.482 61.2853 113.966 61.7207 114.557 62.0322C115.147 62.3424 115.851 62.501 116.663 62.5038C117.472 62.501 118.171 62.3424 118.759 62.0322C119.342 61.7207 119.826 61.2853 120.206 60.7233C120.584 60.1656 120.865 59.5118 121.046 58.7607C121.229 58.0138 121.318 57.1987 121.318 56.3182ZM119.368 56.3182C119.371 56.7995 119.35 57.2752 119.306 57.7411C119.264 58.2071 119.186 58.6425 119.072 59.0528C118.959 59.4631 118.806 59.8248 118.603 60.1391C118.4 60.4535 118.137 60.7011 117.823 60.8791C117.506 61.06 117.118 61.149 116.663 61.1518C116.215 61.149 115.835 61.06 115.521 60.8819C115.204 60.7053 114.939 60.4605 114.734 60.1475C114.531 59.8331 114.368 59.4743 114.25 59.0639C114.135 58.6536 114.049 58.2182 114.005 57.7467C113.957 57.2835 113.937 56.8064 113.937 56.3182C113.932 55.83 113.955 55.3501 113.999 54.8744C114.046 54.3973 114.123 53.9494 114.238 53.5252C114.354 53.1037 114.512 52.7309 114.716 52.4041C114.923 52.0758 115.184 51.8213 115.503 51.6363C115.82 51.4485 116.208 51.3553 116.663 51.3525C117.118 51.3553 117.506 51.4527 117.823 51.6363C118.137 51.824 118.4 52.0842 118.603 52.4096C118.806 52.7379 118.959 53.1107 119.072 53.5363C119.186 53.9578 119.264 54.407 119.306 54.88C119.35 55.3585 119.371 55.8328 119.368 56.3182ZM133.396 56.1193C133.396 55.2027 133.278 54.3751 133.044 53.6365C132.812 52.9006 132.472 52.2692 132.02 51.7434C131.57 51.219 131.019 50.817 130.365 50.5346C129.711 50.2551 128.96 50.1146 128.119 50.1104C127.265 50.1174 126.533 50.1994 125.915 50.3566C125.299 50.5166 124.793 50.7113 124.394 50.9533V67.048H126.323V62.1713C126.475 62.2242 126.648 62.2715 126.852 62.316C127.05 62.3605 127.265 62.3939 127.494 62.4175C127.724 62.4453 127.95 62.4606 128.185 62.4606C129.241 62.4565 130.158 62.2019 130.933 61.6984C131.714 61.1963 132.317 60.4716 132.744 59.5243C133.173 58.5841 133.388 57.4449 133.396 56.1193ZM131.444 56.2083C131.444 57.2682 131.308 58.1737 131.034 58.9276C130.76 59.6815 130.35 60.2574 129.806 60.6566C129.268 61.0558 128.592 61.2589 127.786 61.2616C127.487 61.2616 127.213 61.2366 126.97 61.1893C126.725 61.1406 126.511 61.0739 126.323 60.996V51.6182C126.552 51.5139 126.803 51.4374 127.075 51.3776C127.35 51.315 127.668 51.2858 128.03 51.2858C128.868 51.2899 129.537 51.4888 130.04 51.888C130.539 52.2831 130.902 52.8478 131.123 53.5808C131.342 54.3152 131.449 55.1915 131.444 56.2083ZM145.471 56.1193C145.471 55.2027 145.354 54.3751 145.12 53.6365C144.888 52.9006 144.549 52.2692 144.097 51.7434C143.646 51.219 143.095 50.817 142.441 50.5346C141.788 50.2551 141.036 50.1146 140.195 50.1104C139.341 50.1174 138.609 50.1994 137.992 50.3566C137.375 50.5166 136.868 50.7113 136.47 50.9533V67.048H138.399V62.1713C138.551 62.2242 138.725 62.2715 138.928 62.316C139.127 62.3605 139.341 62.3939 139.57 62.4175C139.8 62.4453 140.028 62.4606 140.262 62.4606C141.319 62.4565 142.234 62.2019 143.01 61.6984C143.791 61.1963 144.393 60.4716 144.82 59.5243C145.25 58.5841 145.464 57.4449 145.471 56.1193ZM143.521 56.2083C143.521 57.2682 143.384 58.1737 143.11 58.9276C142.836 59.6815 142.426 60.2574 141.882 60.6566C141.344 61.0558 140.666 61.2589 139.862 61.2616C139.563 61.2616 139.289 61.2366 139.046 61.1893C138.801 61.1406 138.587 61.0739 138.399 60.996V51.6182C138.629 51.5139 138.879 51.4374 139.153 51.3776C139.426 51.315 139.744 51.2858 140.106 51.2858C140.945 51.2899 141.614 51.4888 142.116 51.888C142.615 52.2831 142.977 52.8478 143.199 53.5808C143.418 54.3152 143.525 55.1915 143.521 56.2083ZM150.784 46.9627C150.781 46.7596 150.73 46.5788 150.63 46.416C150.531 46.2533 150.393 46.1198 150.224 46.0224C150.054 45.9278 149.865 45.8791 149.655 45.8763C149.435 45.8791 149.244 45.9278 149.071 46.0224C148.897 46.1198 148.76 46.2533 148.657 46.416C148.557 46.5788 148.506 46.7596 148.5 46.9627C148.506 47.1588 148.557 47.3355 148.657 47.494C148.76 47.654 148.897 47.7833 149.071 47.8793C149.244 47.9753 149.435 48.0226 149.655 48.0254C149.865 48.0226 150.054 47.9753 150.224 47.8793C150.393 47.7833 150.531 47.654 150.63 47.494C150.73 47.3355 150.781 47.1588 150.784 46.9627ZM150.63 50.333H148.68V62.2826H150.63V50.333ZM162.951 62.2826V53.6587C162.955 53.2261 162.888 52.8005 162.748 52.3832C162.607 51.9659 162.372 51.5848 162.05 51.2454C161.72 50.9019 161.28 50.6278 160.725 50.4248C160.168 50.2217 159.478 50.1146 158.649 50.1104C157.699 50.1146 156.868 50.1925 156.152 50.3399C155.434 50.4901 154.81 50.6946 154.281 50.9533V62.2826H156.233V51.7962C156.436 51.7072 156.639 51.6293 156.85 51.5667C157.056 51.5041 157.29 51.4554 157.55 51.4221C157.814 51.3887 158.128 51.3748 158.494 51.3748C159.001 51.3776 159.418 51.4485 159.746 51.5806C160.076 51.7183 160.33 51.895 160.511 52.1203C160.696 52.3457 160.823 52.5974 160.896 52.8714C160.966 53.1441 161.004 53.4209 160.999 53.7032V62.2826H162.951ZM175.005 62.5274V50.9533C174.775 50.8003 174.492 50.6654 174.151 50.5346C173.807 50.4095 173.411 50.3065 172.966 50.2286C172.514 50.1507 172.012 50.1146 171.457 50.1104C170.559 50.1146 169.772 50.2676 169.092 50.5792C168.416 50.8865 167.851 51.3261 167.396 51.8922C166.937 52.4611 166.598 53.1329 166.368 53.916C166.14 54.7005 166.025 55.5629 166.025 56.5185C166.029 57.7342 166.225 58.783 166.609 59.6634C166.993 60.5425 167.533 61.2171 168.235 61.6956C168.938 62.1685 169.769 62.4078 170.725 62.4161C171.245 62.412 171.712 62.3674 172.114 62.2756C172.518 62.1866 172.854 62.0614 173.12 61.9057V62.7486C173.124 63.3509 173.024 63.8891 172.821 64.3565C172.618 64.8239 172.292 65.1939 171.846 65.4637C171.398 65.7335 170.811 65.8713 170.082 65.874C169.725 65.874 169.376 65.842 169.04 65.7753C168.701 65.7085 168.381 65.6223 168.088 65.5166C167.796 65.4095 167.535 65.294 167.312 65.1646L166.712 66.4735C167.12 66.7197 167.637 66.92 168.273 67.0647C168.907 67.2121 169.62 67.29 170.413 67.2928C171.372 67.29 172.192 67.1009 172.877 66.7281C173.56 66.3553 174.084 65.8114 174.45 65.1021C174.816 64.3927 175.001 63.5358 175.005 62.5274ZM173.12 60.7734C172.884 60.9236 172.607 61.0377 172.286 61.1267C171.964 61.2144 171.615 61.2589 171.235 61.2616C170.477 61.2589 169.854 61.0739 169.37 60.7011C168.886 60.3269 168.527 59.7845 168.298 59.0681C168.065 58.3546 167.95 57.4824 167.954 56.4517C167.95 55.3946 168.072 54.4822 168.313 53.713C168.556 52.9396 168.933 52.3457 169.444 51.9256C169.953 51.5041 170.611 51.2899 171.413 51.2858C171.757 51.2816 172.071 51.308 172.358 51.3595C172.643 51.4109 172.899 51.4958 173.12 51.6182V60.7734Z" fill="#807F80"/>
</svg>
