<svg width="64" height="64" viewBox="0 0 64 64" fill="none" xmlns="http://www.w3.org/2000/svg">
<path fill-rule="evenodd" clip-rule="evenodd" d="M10.6667 8H20C21.4667 8 22.6667 9.2 22.6667 10.6667C22.6667 14 23.2 17.2 24.1867 20.1867C24.48 21.12 24.2667 22.16 23.52 22.9067L17.6533 28.7733C21.4933 36.32 27.68 42.48 35.2267 46.3467L41.0933 40.48C41.6267 39.9733 42.2933 39.7067 42.9867 39.7067C43.2533 39.7067 43.5467 39.7333 43.8133 39.84C46.8 40.8267 50.0267 41.36 53.3333 41.36C54.8 41.36 56 42.56 56 44.0267V53.3333C56 54.8 54.8 56 53.3333 56C28.2933 56 8 35.7067 8 10.6667C8 9.2 9.2 8 10.6667 8ZM17.44 13.3333C17.6 15.7067 18 18.0267 18.64 20.24L15.44 23.44C14.3467 20.24 13.6533 16.8533 13.4133 13.3333H17.44ZM43.7333 45.3867C46 46.0267 48.32 46.4267 50.6667 46.5867V50.56C47.1467 50.32 43.76 49.6267 40.5333 48.56L43.7333 45.3867Z" fill="#185477"/>
</svg>
