<svg width="240" height="72" viewBox="0 0 240 72" fill="none" xmlns="http://www.w3.org/2000/svg">
<path d="M21.4854 7.87442C21.4529 7.87442 21.4529 7.87442 21.4854 7.87442V7.87442Z" fill="#807F80"/>
<path d="M80.6263 39.0782C78.7049 31.4978 76.816 23.9501 74.8946 16.3697C75.4157 15.7489 76.0344 15.1281 75.4808 14.2132C74.862 13.2004 73.885 13.2657 72.8755 13.4617C66.297 9.7369 59.7511 6.04473 53.1727 2.31988C52.6516 2.02582 52.1306 1.82977 51.7723 1.27431C50.7628 -0.359393 49.916 -0.392067 48.5157 1.01292C47.0502 0.849548 45.6173 1.17629 44.1518 1.30699C37.8664 1.86245 31.5485 2.48325 25.2632 3.07139C24.449 2.5486 23.6023 2.05849 22.6253 2.6793C21.9088 3.13673 21.9739 3.82289 22.1368 4.54172C15.9491 11.6647 9.76149 18.8203 3.57385 25.9432C3.28075 26.3027 3.02022 26.7928 2.46659 26.8254C1.58729 26.8908 0.805695 27.0868 0.642862 28.0997C0.447463 29.2107 1.32676 29.5701 2.07579 30.0275C3.44358 36.4643 4.81138 42.9011 6.17917 49.3379C5.56041 49.926 4.87651 50.5468 5.36501 51.5271C5.82094 52.4746 6.63511 52.736 7.64467 52.6053C7.9052 52.5726 8.16573 52.6053 8.42627 52.6053C16.1445 58.2906 23.8302 63.9759 31.5485 69.6285C31.4508 70.6741 31.6788 71.5563 32.8512 71.883C34.0887 72.2424 34.9029 71.7523 35.5216 70.7067C44.0215 69.7592 52.5214 68.8116 61.0212 67.8641C61.5423 67.7988 62.0959 67.6027 62.5844 67.9948C63.3986 68.5829 64.2453 68.8443 65.0921 68.1255C66.1016 67.276 65.776 66.2957 65.3852 65.3155C66.8506 63.5838 67.9579 61.558 69.1954 59.6629C72.8755 53.9776 76.5229 48.2923 80.2029 42.5744C81.2125 42.607 82.0267 42.2476 82.2221 41.1694C82.3523 40.0585 81.6033 39.4703 80.6263 39.0782ZM73.9176 17.7421C75.5134 24.0808 77.1091 30.4523 78.7049 36.791C78.77 37.0851 78.77 37.4445 78.8026 37.7713C75.7739 34.3078 73.2011 30.4849 70.3353 26.8908C70.0422 26.4987 69.7491 26.1393 69.4234 25.7472C69.1303 25.8779 69.0326 26.1066 68.9675 26.368C69.0652 26.1066 69.1629 25.8779 69.4234 25.7472C70.3678 22.6432 72.0939 19.8659 73.2988 16.9252C73.9502 16.9252 73.8525 17.4153 73.9176 17.7421ZM63.4963 39.503C63.4637 39.699 63.3986 39.8951 63.366 40.0911C67.0786 40.3525 70.7912 40.5486 74.5038 40.908C75.5785 41.006 76.7509 40.8426 77.7604 41.4634C73.2988 42.6397 68.8046 43.7833 64.343 44.9596C63.3335 45.221 62.7798 45.1229 62.9101 43.914C63.0404 42.6397 62.2262 41.2347 63.366 40.0585C63.4312 39.8951 63.4637 39.699 63.4963 39.503C63.2032 39.0129 63.2358 38.5228 63.4963 38C65.2875 34.2425 67.0461 30.4849 68.8046 26.7274C71.8985 30.779 74.9597 34.8306 78.0535 38.8822C78.4443 39.3723 79.0305 39.8297 78.4443 40.5812C73.4617 40.2218 68.479 39.8624 63.4963 39.503ZM76.9788 42.4437C76.7183 42.6397 76.4903 42.8684 76.1321 42.7704C76.0018 43.3912 75.4156 43.4566 74.9923 43.7179C71.1494 46.1358 67.274 48.5537 63.4312 50.9389C62.9427 49.4686 63.2032 47.9329 63.0729 46.4299C63.0404 46.0051 63.2358 45.7764 63.6917 45.6457C67.7625 44.6001 71.8008 43.5546 75.8716 42.509C75.9367 42.4763 76.0344 42.607 76.1321 42.6724C76.2949 42.2476 76.6857 42.4763 76.9788 42.4437ZM49.167 9.80225C49.395 9.83492 49.6229 9.83492 49.8509 9.8676C50.8605 10.0963 51.87 10.2924 52.8796 10.5211C53.1727 11.9261 53.9217 13.233 54.052 14.7034C54.3125 14.7034 54.5731 14.7034 54.8336 14.7034C54.4428 13.3964 54.052 12.0894 53.6612 10.7825C54.9964 10.9132 56.2665 11.2399 57.5366 11.6973C58.1879 12.6122 58.8067 13.5271 59.6209 14.7034C57.8623 14.7034 56.3642 14.7034 54.8336 14.7034C54.5731 14.7034 54.3125 14.7034 54.052 14.7034C52.5539 14.6053 51.0233 15.0628 49.5578 14.442C49.2647 14.4093 49.0042 14.4093 48.7111 14.3766C48.3854 14.3766 48.0272 14.4746 47.7667 14.3766C44.282 12.7756 40.6997 11.4033 37.3128 9.54086C38.2572 8.75668 39.3319 8.23389 40.4066 7.71111C40.5369 7.64576 40.6671 7.54774 40.7974 7.48239C40.6671 7.58041 40.5369 7.64576 40.4066 7.71111C43.2725 8.39726 46.2035 9.08342 49.167 9.80225ZM58.5788 11.828C58.709 11.8607 58.8718 11.9261 59.0021 11.9914C58.8718 11.8934 58.709 11.8607 58.5788 11.828ZM59.1975 12.0894C59.1649 12.0568 59.0998 12.0241 59.0347 11.9914C59.0998 12.0241 59.1324 12.0568 59.1975 12.0894C62.7147 12.8736 66.2645 13.6578 69.7816 14.442C67.0135 14.8341 64.2128 14.8014 61.4446 14.6053C60.2722 14.54 59.8814 13.0043 59.1975 12.0894ZM54.2474 4.50905C58.7741 7.05762 63.3009 9.6062 67.7951 12.1548C68.023 12.2855 68.2836 12.4162 68.3161 12.7102C64.7013 12.2855 61.2166 11.2726 57.6994 10.4231C57.5366 10.4557 57.3738 10.4557 57.2435 10.4231C57.4064 10.4557 57.5366 10.4557 57.6994 10.4231C56.2014 8.39726 54.7033 6.3388 53.2053 4.313C53.6286 4.08428 53.9217 4.34568 54.2474 4.50905ZM48.646 2.80999C49.0693 2.5486 49.4601 2.58128 49.8183 2.94069C49.9812 2.94069 50.1114 2.94069 50.2091 3.00604C50.1114 2.97336 49.9812 2.94069 49.8183 2.94069C49.5904 4.80311 49.3624 6.66554 49.167 8.49529C49.3624 8.52796 49.5904 8.52796 49.7858 8.56063C50.0789 7.54774 50.1114 6.53484 50.144 5.48927C50.1766 4.93381 49.9812 4.24765 50.7302 3.95359C51.2838 5.68531 51.8375 7.41704 52.3585 9.11609C52.5865 9.21411 52.8145 9.31214 53.0424 9.44283C52.5214 7.8418 52.0003 6.2081 51.4792 4.60707C52.5214 4.67242 52.7493 5.68531 53.2378 6.30612C54.1171 7.41704 55.1918 8.42994 55.6803 9.83492C55.778 9.93294 55.8757 9.99829 56.006 10.0963C55.8432 10.0963 55.6478 10.0963 55.6803 9.8676C54.7685 10.0636 53.9543 9.6062 53.075 9.47551C52.847 9.37749 52.6191 9.27946 52.3911 9.14877C51.4792 9.21412 50.6325 8.95272 49.7858 8.56063C49.5904 8.52796 49.3624 8.52796 49.167 8.49529C46.7571 7.93983 44.3472 7.41704 41.9372 6.86158C44.0215 5.29322 46.4314 4.1823 48.646 2.80999ZM43.6307 2.71197C44.4774 2.64662 45.4219 2.15651 46.236 2.97336C46.3012 2.94069 46.3663 2.90802 46.3989 2.87534C46.3337 2.90802 46.2686 2.94069 46.236 2.97336C44.0866 4.14963 42.0675 5.58729 39.7878 6.53484C39.5599 6.82891 39.2668 7.02495 38.9411 7.12297C39.2668 7.02495 39.5599 6.79623 39.7878 6.53484C39.4296 6.40414 39.1039 6.27345 38.7457 6.17542C35.8147 5.3259 32.786 5.03183 29.9202 3.95359C34.4795 3.52882 39.0714 3.07139 43.6307 2.71197ZM27.8034 4.80311C31.3857 5.58729 34.968 6.40414 38.5503 7.22099C37.671 8.03785 36.6615 8.65866 35.4891 8.92005C32.4604 7.51506 29.4317 6.11008 26.403 4.70509L26.3704 4.57439C26.8589 4.63974 27.3474 4.70509 27.8034 4.80311ZM24.449 5.48927C24.4816 5.12985 24.8072 4.99916 25.1329 4.90114C28.3896 6.37147 31.6136 7.8418 34.8703 9.27946C33.7956 10.4884 32.265 10.9785 30.9297 11.7954C28.5524 13.2004 26.1425 14.54 23.7325 15.8796C23.5697 12.3835 24.1885 8.95272 24.449 5.48927ZM32.0044 12.4488C33.4699 11.5666 34.8377 10.5211 36.5312 10.031C39.7553 11.5013 42.9794 12.9716 46.2035 14.442C46.7245 14.6707 47.3759 14.7687 47.669 15.3568C47.7667 15.5856 47.8644 15.7816 47.9295 16.0103C48.4831 16.4351 49.2647 16.6311 49.6555 16.1083C50.3068 15.2588 51.0884 15.3895 51.9026 15.3895C52.6842 15.3895 53.4984 15.3895 54.28 15.4222C54.5405 15.4222 54.801 15.4222 55.0616 15.4222C56.1037 15.3895 57.1458 15.4549 58.1554 15.3242C59.5232 15.1608 60.4025 15.6509 61.2818 16.7945C63.594 19.8659 65.776 23.0679 68.3487 25.9432C68.5115 25.6165 68.6744 25.2571 68.8372 24.9304C66.4599 21.8263 64.1151 18.6896 61.4446 15.1935C65.32 15.1935 68.6744 15.1935 72.0287 15.1935C72.2567 15.5202 72.4521 15.8796 72.8755 16.0103C71.7356 19.0817 70.2701 21.9897 68.8046 24.9304C68.6418 25.2571 68.479 25.6165 68.3161 25.9432C66.4599 30.0929 64.571 34.2751 62.7147 38.4248C62.5844 38.4248 62.4542 38.3921 62.3239 38.3921C61.4446 35.6801 60.5653 32.9682 59.7186 30.2562C58.1554 25.3224 56.6248 20.356 55.0616 15.4222C54.801 15.4222 54.5405 15.4222 54.28 15.4222C56.7225 22.9372 59.2952 30.4196 61.4446 38.0327C61.9657 39.9278 62.5193 42.0189 62.4542 44.1427C62.4216 45.1556 62.1611 45.5477 61.1841 45.7764C53.4658 47.7369 45.7801 49.7627 38.0944 51.7558C38.0944 51.9518 38.0944 52.1479 38.0944 52.3439C45.5847 50.4161 53.075 48.4884 60.5653 46.5279C62.4216 46.0378 62.4542 46.0378 62.5193 48.0636C62.5519 49.2399 62.9101 50.4161 62.5844 51.6251C62.0959 51.8865 61.64 52.1152 61.1515 52.3766C57.4715 54.6311 53.7915 56.8856 50.0789 59.1728C46.8222 57.3757 43.5981 55.6113 40.3415 53.8142C39.5599 53.3895 38.6806 53.0627 38.0618 52.3439C38.0618 52.1479 38.0618 51.9518 38.0618 51.7558C37.3454 51.3964 36.694 51.1676 35.9124 51.5924L28.1942 51.4617C26.2402 44.8615 24.2862 38.2614 22.3647 31.6612C22.2345 31.7919 22.0716 31.9226 21.9414 32.0533C23.8302 38.5228 25.6865 44.9922 27.5754 51.4617L20.1502 51.331C18.1637 48.6844 16.1771 46.0378 14.1905 43.3912C13.8323 42.9011 13.7346 42.5417 14.1254 41.9862C16.5028 38.8168 18.815 35.6475 21.1272 32.4454C21.3226 32.1513 21.5831 31.988 21.9414 32.0533C22.0716 31.9226 22.2345 31.7919 22.3647 31.6612C22.5276 28.7859 22.6578 25.9106 22.8207 23.0026C31.1577 20.65 39.5273 18.2975 47.8644 15.9776C47.7667 15.7489 47.669 15.5529 47.6038 15.3242C39.3971 17.644 31.2228 19.9639 23.0161 22.2838C23.0812 20.7154 23.1789 19.1797 23.244 17.6114C26.0122 15.5856 29.106 14.1806 32.0044 12.4488ZM47.2782 61.8847C47.0176 61.8194 46.7897 61.6887 46.5617 61.4926C43.4027 60.6104 40.2112 59.6956 37.0523 58.8787C36.2055 58.65 36.0101 58.2906 36.2055 57.5064C36.4661 56.5262 36.5963 55.4806 36.8243 54.5004C37.0523 53.4222 37.5733 53.0301 38.6806 53.6509C42.2629 55.644 45.9104 57.5718 49.4927 59.5322C48.5157 60.1857 47.5387 60.8392 46.5617 61.4926C46.7897 61.6887 47.0176 61.7867 47.2782 61.8847ZM22.1693 54.5331C22.1042 53.5855 21.2249 53.0954 20.8667 52.3439C22.9509 52.3439 25.0026 52.3439 27.0869 52.3439L27.9336 52.3766C28.3244 53.7816 28.6827 55.1539 29.0735 56.5589C26.8915 56.2321 24.8398 55.4153 22.6904 54.8925C22.5276 54.6964 22.4624 54.4024 22.1693 54.5331ZM19.1407 52.0172C19.6617 52.736 20.2154 53.4548 20.7364 54.1737C18.066 53.8142 15.6235 52.736 13.0507 52.0172C15.1024 52.0172 17.1215 52.0172 19.1407 52.0172ZM28.6175 52.5726C30.6041 52.5726 32.6232 52.5726 34.6098 52.6053L35.3588 52.638C36.0753 52.736 36.4986 53.1608 36.2707 54.0756C35.9124 55.4479 36.1078 57.3104 35.2285 58.0619C34.3167 58.8461 32.7209 57.5391 31.3857 57.2777C30.8646 57.1797 30.3436 56.9836 29.8225 56.8203C29.4317 55.4153 29.0083 54.0103 28.6175 52.5726ZM51.0233 60.2837C53.5635 61.7214 56.1037 63.1917 58.6439 64.6294C58.7741 64.6947 59.0998 64.6294 59.0021 64.8581C58.937 65.0214 58.6764 64.9234 58.5462 64.7274C55.029 64.1393 51.6746 62.8323 48.2226 62.0154C48.9716 61.1986 49.9486 60.6758 51.0233 60.2837ZM12.0412 39.4703C12.5622 37.8693 13.1158 36.3009 13.6695 34.7326C14.1905 33.2622 14.7442 31.7919 15.2652 30.3216C16.9913 30.583 18.7173 30.8117 20.4759 31.0731C20.5085 30.8444 20.5085 30.6483 20.541 30.4196C18.8801 30.0929 17.2518 29.7661 15.5583 29.7334C15.884 27.9364 16.6005 26.27 17.2844 24.5709C18.9127 24.1462 20.541 23.7214 22.1693 23.2966C22.0391 25.1264 21.8111 26.9235 21.8111 28.7532C21.8111 29.7334 20.9644 29.8641 20.541 30.4523C20.5085 30.681 20.5085 30.877 20.4759 31.1058C21.0295 31.8246 20.4759 32.3147 20.1177 32.8048C18.1637 35.4514 16.2097 38.1307 14.2231 40.7773C13.93 41.1694 13.702 42.1496 13.0507 41.7248C12.3994 41.2347 11.7155 40.5159 12.0412 39.4703ZM11.7481 44.1754C11.0316 44.9596 10.4128 45.8418 9.76149 46.6586C9.82663 44.8615 10.9013 43.3912 11.227 41.5288C12.3668 42.411 12.6925 43.1625 11.7481 44.1754ZM15.656 25.1264C15.4606 26.6294 14.7767 28.0017 14.2557 29.4067C12.8879 29.2107 11.5201 29.0146 10.1523 28.7859C8.71937 28.5245 7.15617 28.7859 5.88608 27.8057C9.11016 26.9235 12.3668 26.0413 15.656 25.1264ZM8.55653 26.1066C11.3898 24.4402 14.0603 22.5125 17.0564 21.2055C16.7633 22.3164 16.4376 23.4273 15.884 24.4402C13.4415 24.9303 11.1293 25.9759 8.55653 26.1066ZM23.1138 7.41704C23.244 7.44971 23.3743 7.44971 23.5046 7.48239C23.3092 10.325 23.1138 13.1677 22.9184 15.9776C22.1693 17.3173 20.7039 17.6114 19.4663 18.2975C19.2709 18.8203 19.0755 19.3758 18.8801 19.8985C20.2479 19.4411 21.2575 18.2648 22.723 18.0034C22.6253 19.5065 22.495 21.0095 22.3973 22.5125C20.8016 22.9699 19.2058 23.4273 17.61 23.8521C17.838 22.4798 18.3916 21.2055 18.9127 19.8985C19.1081 19.3758 19.3035 18.8203 19.4989 18.2975C20.7039 14.7034 21.9088 11.0765 23.1138 7.41704ZM5.07191 26.4334C5.20218 26.27 5.29988 26.1066 5.56041 26.172V26.2373C5.56041 26.2373 5.56041 26.2373 5.56041 26.2046C5.91864 24.865 7.05847 24.1462 7.87264 23.1986C11.9109 18.4282 16.0468 13.6905 20.1828 8.9854C20.541 8.56063 20.769 7.93983 21.4529 7.87448C21.3878 7.61308 21.5832 7.58041 21.7785 7.54774C21.746 7.71111 21.8111 7.97245 21.4854 7.87442C21.7785 8.16849 21.5506 8.46261 21.4529 8.75668C20.1502 12.3835 19.0755 16.0757 17.5775 19.6371C17.6426 20.0292 17.4798 20.356 17.3169 20.65C17.4798 20.3233 17.61 19.9966 17.5775 19.6371C14.5488 21.3689 11.5201 23.1006 8.4914 24.7997C7.54697 25.3224 6.70024 26.1393 5.56041 26.2373C5.56041 26.5967 5.29988 26.4987 5.07191 26.4334C4.77881 26.8254 4.35545 27.1195 4.16005 27.5443C4.32288 27.1195 4.77881 26.7928 5.07191 26.4334ZM4.22518 28.4592C4.45315 28.4265 4.64855 28.3938 4.87651 28.3611C5.00678 28.0344 5.23474 27.8383 5.56041 27.8057C5.26731 27.8383 5.03935 28.0344 4.87651 28.3611C5.00678 28.7532 5.36501 28.7205 5.65811 28.7859C8.42627 29.2107 11.1944 29.6354 13.9951 30.0602C13.2135 33.0335 12.0412 35.8762 10.9665 38.9802C8.52397 35.7128 6.17917 32.5761 3.86695 29.472C3.96465 29.1453 4.09492 28.7859 4.22518 28.4592ZM7.5144 48.9785C6.21174 42.9664 5.03934 37.4445 3.86695 31.9226C3.96465 31.8573 4.09492 31.8246 4.19261 31.7592C6.17917 34.4385 8.16573 37.1178 10.1849 39.7971C10.478 40.1892 10.478 40.5812 10.3477 41.006C9.40326 43.4892 8.55653 46.0051 7.5144 48.9785ZM9.72893 46.724C9.69636 46.7893 9.63123 46.8873 9.59866 46.9527C9.50096 46.7566 9.53353 46.6913 9.72893 46.724ZM8.75193 49.3706C9.92433 47.8022 11.1619 46.2665 12.2366 44.6328C12.8879 43.6199 13.2135 43.8486 13.7997 44.6655C15.3629 46.8873 16.9913 49.0438 18.587 51.233C15.7212 51.3637 12.8553 51.2003 10.022 51.1023C8.7845 51.0696 9.14273 49.9587 8.75193 49.3706ZM28.7152 65.969C28.2919 65.6749 27.9011 65.3482 27.4777 65.0541L27.4451 65.0215C22.1693 61.1006 16.9261 57.1797 11.6504 53.2588H11.6829C11.6829 53.2588 11.6829 53.2588 11.6504 53.2588C14.2557 53.3895 16.633 54.5004 19.1407 55.0885C20.1177 55.3172 21.0947 55.6113 22.1042 55.9054C22.2019 56.0034 22.2996 56.1014 22.4299 56.1994C24.4164 58.9441 26.4356 61.6887 28.4221 64.4333C29.6597 65.3482 30.083 66.9165 30.083 66.9165L28.9432 66.067C28.8455 66.067 28.7804 66.0017 28.7152 65.969ZM33.1768 68.5503C33.1768 68.3542 33.1443 68.1908 33.1443 67.9948C32.6558 66.3938 32.1021 64.8254 31.6788 63.2244C31.2228 61.5253 30.5064 59.9243 30.311 58.1599C30.083 58.1599 29.8551 58.1599 29.5945 58.1599C29.9202 59.3688 30.311 60.5451 30.6041 61.754C31.0274 63.4858 31.9393 65.0868 31.809 66.9165C29.0083 63.6165 26.5007 60.0877 24.0582 56.5262C25.9145 56.951 27.8034 57.4084 29.5945 58.1599C29.8225 58.1599 30.0505 58.1599 30.311 58.1599C30.7669 58.3233 31.2228 58.454 31.6788 58.6173C35.1308 59.6302 35.196 59.6629 34.3818 63.0937C33.991 64.7601 33.991 66.4918 33.1117 68.0275C33.1768 68.1908 33.1768 68.3869 33.1768 68.5503ZM35.0983 68.6156C34.6749 68.877 34.2515 69.1384 33.8282 68.6156C34.3818 66.1324 34.968 63.6491 35.4239 61.1659C35.6193 60.0223 35.9776 59.7282 37.1174 60.1203C39.6901 60.9372 42.2955 61.656 44.9008 62.4075C41.6441 64.466 38.3549 66.5571 35.0983 68.6156ZM42.9468 68.6156C40.7974 68.877 38.648 69.0404 36.4986 69.2691C39.853 67.1453 43.2073 65.0215 46.5291 62.8976C46.236 62.7016 45.9104 62.5056 45.5521 62.4402C45.9104 62.5056 46.2035 62.7016 46.5291 62.8976C51.0233 63.9759 55.4524 65.2502 59.8488 66.6225C54.2148 67.276 48.5808 67.9621 42.9468 68.6156ZM62.0959 65.6096C58.6439 63.5838 54.9964 61.9174 51.6095 59.7282C51.5444 59.7282 51.4467 59.7609 51.3815 59.7936C51.4467 59.7609 51.5118 59.7609 51.6095 59.7282C55.2895 57.3757 58.937 54.9578 62.7798 52.834C62.9752 55.5786 63.2032 58.3233 63.1381 61.0679C63.1381 61.8194 63.0404 62.5382 63.3335 63.2897C63.9197 64.5967 62.6821 64.9561 62.0959 65.6096ZM77.9558 43.4566C77.793 43.5546 77.6302 43.6853 77.4673 43.7833C77.5325 44.6655 76.8811 45.2536 76.4578 45.9398C72.6475 51.8211 68.8372 57.7025 65.0269 63.5838C64.799 63.9432 64.6361 64.3353 64.4407 64.7274C63.9522 64.7927 63.7243 64.5967 63.7568 64.1066C63.9848 60.153 63.3009 56.2321 63.4312 52.2786C63.8871 52.0172 64.3756 51.7558 64.8315 51.4617C69.0652 48.9458 73.0709 46.1032 77.4348 43.7833C77.5325 43.5219 77.7279 43.4566 77.9558 43.4566C78.3466 43.0318 78.7049 42.607 79.0957 42.1496C78.7049 42.5744 78.3466 42.9991 77.9558 43.4566Z" fill="#807F80"/>
<path d="M76.1321 42.7704C76.1647 42.7377 76.1647 42.7377 76.1321 42.7704V42.7704Z" fill="#807F80"/>
<path d="M48.6458 14.3766C48.9389 14.4093 49.1994 14.4093 49.4925 14.4419C49.2971 12.9063 49.5577 11.4033 49.8182 9.86757C49.5902 9.8349 49.3623 9.8349 49.1343 9.80223C48.9715 11.3379 48.8086 12.8409 48.6458 14.3766Z" fill="#807F80"/>
<path fill-rule="evenodd" clip-rule="evenodd" d="M163.638 16.4677H157.809L156.279 21.4015H154.031L159.6 4.28034H161.88L167.449 21.4015H165.202L163.638 16.4677ZM160.473 7.60279C160.436 7.75164 160.397 7.90863 160.356 8.06673C160.267 8.41374 160.173 8.76632 160.089 9.05079L158.363 14.4746H163.052L161.326 9.05079C161.206 8.64172 161.071 8.0921 160.961 7.62034C160.833 7.07455 160.74 6.63278 160.74 6.63278H160.707C160.707 6.63278 160.607 7.06513 160.473 7.60279Z" fill="#807F80"/>
<path d="M161.359 0H163.638L161.522 3.07133H159.73L161.359 0Z" fill="#807F80"/>
<path d="M102.902 3.9863C106.647 3.9863 108.536 6.24078 108.536 6.24078L107.461 8.03786C107.461 8.03786 105.67 6.17553 102.967 6.17553C99.4824 6.17553 97.2351 9.08349 97.2351 12.7103C97.2351 16.3697 99.5476 19.4738 102.999 19.4738C105.93 19.4738 107.787 17.252 107.787 17.252L108.959 18.9837C108.959 18.9837 106.842 21.6957 102.934 21.6957C98.2773 21.6957 95.0207 17.7748 95.0207 12.7429C95.0207 7.77653 98.4077 3.9863 102.902 3.9863Z" fill="#807F80"/>
<path d="M112.281 64.4659C112.281 62.7997 113.03 61.9174 114.007 61.9174C115.114 61.9174 115.928 62.963 115.961 64.8254C115.961 66.5245 115.212 67.374 114.267 67.374C112.997 67.374 112.281 66.0671 112.281 64.4659Z" fill="#807F80"/>
<path d="M138.529 64.4659C138.529 62.7997 139.278 61.9174 140.255 61.9174C141.363 61.9174 142.177 62.963 142.209 64.8254C142.209 66.5245 141.46 67.374 140.516 67.374C139.246 67.374 138.529 66.0671 138.529 64.4659Z" fill="#807F80"/>
<path d="M167.286 64.4659C167.286 62.7997 168.035 61.9174 169.012 61.9174C170.119 61.9174 170.933 62.963 170.966 64.8254C170.966 66.5245 170.217 67.374 169.272 67.374C168.003 67.374 167.286 66.0671 167.286 64.4659Z" fill="#807F80"/>
<path d="M175.2 62.1133C175.224 62.0891 175.257 62.0693 175.302 62.0541C175.38 62.0283 175.492 62.0154 175.656 62.0154C176.209 62.0154 176.828 62.3748 176.828 63.355C176.828 63.8124 176.698 64.1719 176.372 64.4332C176.144 64.6293 175.851 64.6947 175.428 64.6947H175.102V62.4728C175.102 62.2767 175.134 62.1787 175.2 62.1133Z" fill="#807F80"/>
<path d="M181.843 62.0154C181.615 62.0154 181.485 62.0481 181.42 62.1133C181.354 62.1787 181.322 62.2767 181.322 62.4401V64.7599C181.382 64.7997 181.489 64.8274 181.616 64.8431C181.665 64.8493 181.718 64.8534 181.772 64.8558C181.806 64.8573 181.841 64.8581 181.876 64.8581C182.364 64.8581 183.081 64.5966 183.081 63.3877C183.081 62.3748 182.494 62.0154 181.843 62.0154Z" fill="#807F80"/>
<path d="M188.389 61.9174C187.412 61.9174 186.663 62.7997 186.663 64.4659C186.663 66.0671 187.38 67.374 188.65 67.374C189.594 67.374 190.343 66.5245 190.343 64.8254C190.311 62.963 189.496 61.9174 188.389 61.9174Z" fill="#807F80"/>
<path d="M194.716 62.0434C194.651 62.0597 194.607 62.083 194.577 62.1133C194.511 62.1787 194.479 62.2767 194.479 62.4728V64.6947H194.805C195.228 64.6947 195.521 64.6293 195.749 64.4332C196.075 64.1719 196.205 63.8124 196.205 63.355C196.205 62.3748 195.586 62.0154 195.033 62.0154C194.893 62.0154 194.791 62.0248 194.716 62.0434Z" fill="#807F80"/>
<path d="M202.197 65.1521H200.667C200.802 64.7464 200.959 64.3407 201.119 63.9283L201.121 63.9244C201.231 63.6406 201.342 63.3536 201.448 63.061L202.197 65.1521Z" fill="#807F80"/>
<path d="M221.477 65.1521H223.007L222.258 63.061C222.115 63.4551 221.972 63.8392 221.83 64.2191L221.48 65.142L221.477 65.1521Z" fill="#807F80"/>
<path fill-rule="evenodd" clip-rule="evenodd" d="M95.0207 71.1968V57.1796H239.909V71.1968H95.0207ZM140.795 60.0581C140.696 60.0279 140.593 59.9898 140.488 59.951C140.234 59.8579 139.971 59.7609 139.734 59.7609C139.442 59.7609 139.051 60.0549 138.66 60.7084L138.888 60.8718C139.148 60.4798 139.376 60.4144 139.539 60.4144C139.731 60.4144 139.969 60.5007 140.212 60.5887C140.465 60.6803 140.724 60.7738 140.94 60.7738C141.2 60.7738 141.591 60.6104 142.014 59.859L141.786 59.6956C141.526 60.0549 141.363 60.1203 141.135 60.1203C141.031 60.1203 140.917 60.0951 140.795 60.0581ZM107.787 67.766C108.471 67.766 109.187 67.6027 109.448 67.5374C109.537 67.3584 109.645 67.0715 109.752 66.7896C109.841 66.557 109.928 66.3276 110.001 66.165L109.676 66.0344C109.187 66.9819 108.699 67.4066 107.884 67.4066C106.549 67.4066 105.67 66.263 105.67 64.564C105.67 63.0937 106.354 61.9828 107.754 61.9828C108.047 61.9828 108.373 62.0154 108.601 62.1135C109.057 62.2768 109.318 62.6363 109.513 63.3223L109.838 63.2571C109.793 62.9621 109.748 62.5725 109.714 62.2197C109.699 62.0645 109.685 61.9164 109.676 61.7867C109.415 61.754 108.731 61.5579 107.95 61.5579C105.8 61.5579 104.367 62.8322 104.367 64.7274C104.367 66.2304 105.442 67.766 107.787 67.766ZM111.011 64.6947C111.011 66.4263 112.313 67.766 114.105 67.766C115.831 67.766 117.198 66.5245 117.198 64.5967C117.198 62.767 115.798 61.5579 114.17 61.5579C112.151 61.5579 111.011 63.0937 111.011 64.6947ZM123.81 62.5709C123.842 62.1462 124.037 62.0481 124.591 61.9828V61.7213H122.344V62.0154C123.093 62.0808 123.256 62.2441 123.288 62.6363C123.321 62.963 123.321 63.2898 123.321 64.1066V65.9689L119.706 61.7213H118.078V62.0154C118.313 62.0351 118.49 62.0549 118.629 62.1176C118.72 62.1589 118.795 62.2188 118.859 62.3095C119.022 62.5382 119.055 62.7015 119.055 62.9956V65.2175C119.055 66.0017 119.022 66.3611 118.99 66.6878C118.925 67.1125 118.697 67.2759 118.175 67.3086V67.6027H120.423V67.3086C119.739 67.2759 119.543 67.0798 119.511 66.6551C119.511 66.3938 119.478 66.0344 119.478 65.2175V63.061L123.321 67.7008H123.777V64.0412C123.777 63.2571 123.777 62.8976 123.81 62.5709ZM125.34 67.6027H129.965C129.997 67.472 130.079 67.1534 130.16 66.8348L130.281 66.363L130.355 66.0671L130.03 66.0017C129.936 66.2129 129.809 66.4579 129.672 66.6639C129.619 66.7446 129.564 66.8195 129.509 66.8839C129.313 67.1452 129.183 67.2107 128.662 67.2107H127.945C127.424 67.2107 127.327 67.0473 127.327 66.4264V64.7601H128.239C128.825 64.7601 128.89 64.8581 129.02 65.5443H129.346V63.5511H129.02C128.89 64.2046 128.825 64.3352 128.239 64.3352H127.294V62.3748C127.294 62.0808 127.327 62.0481 127.652 62.0481H128.336C128.857 62.0481 128.988 62.1135 129.15 62.3421C129.281 62.5055 129.411 62.7997 129.509 63.1264L129.834 63.0937C129.825 62.9343 129.812 62.7569 129.798 62.5816L129.758 62.0525L129.751 61.9432C129.744 61.8486 129.739 61.7684 129.737 61.7098L129.736 61.6561C129.639 61.6886 129.281 61.6886 128.369 61.6886H125.47V61.9828C126.122 62.0481 126.219 62.1135 126.219 62.8976V66.4264C126.219 67.178 126.187 67.2432 125.34 67.3086V67.6027ZM134.166 67.6027H136.934V67.3413C136.315 67.2759 136.12 67.1779 135.729 66.5572C135.415 66.0851 135.137 65.6366 134.852 65.1765L134.842 65.1617C134.656 64.862 134.467 64.5572 134.263 64.2373C134.784 63.4857 135.078 63.061 135.371 62.6363C135.761 62.1462 135.989 62.0481 136.608 61.9828V61.6886H134.459V61.9828C135.045 62.0481 135.11 62.1462 134.915 62.5055C134.719 62.8976 134.361 63.4531 134.068 63.8778C133.677 63.2898 133.384 62.767 133.189 62.4075C133.058 62.1462 133.091 62.0481 133.644 61.9828V61.6886H131.007V61.9828C131.69 62.0808 131.853 62.2114 132.147 62.7015C132.226 62.8338 132.305 62.9648 132.384 63.0958C132.522 63.3215 132.661 63.5474 132.804 63.7802L132.861 63.8726L133.074 64.2189L133.196 64.4195L133.384 64.7274C132.765 65.6749 132.244 66.3611 131.919 66.7858C131.658 67.1125 131.365 67.2759 130.844 67.3086V67.6027H133.058V67.3086C132.407 67.2432 132.375 67.1452 132.57 66.7531C132.798 66.3611 133.189 65.7403 133.612 65.0868C134.003 65.7467 134.25 66.1722 134.413 66.454C134.508 66.6186 134.573 66.7341 134.621 66.8185C134.752 67.1125 134.752 67.2432 134.166 67.3086V67.6027ZM137.26 64.6947C137.26 66.4263 138.562 67.766 140.353 67.766C142.079 67.766 143.447 66.5245 143.447 64.5967C143.447 62.767 142.047 61.5579 140.419 61.5579C138.399 61.5579 137.26 63.0937 137.26 64.6947ZM144.391 67.6027H149.016C149.114 67.3413 149.342 66.3284 149.407 66.0671L149.081 66.0017C148.951 66.2957 148.755 66.6551 148.56 66.8839C148.365 67.1452 148.235 67.2107 147.713 67.2107H146.997C146.476 67.2107 146.378 67.0473 146.378 66.4264V64.7601H147.29C147.876 64.7601 147.941 64.8581 148.072 65.5443H148.397V63.5511H148.072C147.941 64.2046 147.876 64.3352 147.29 64.3352H146.345V62.3748C146.345 62.0808 146.378 62.0481 146.704 62.0481H147.388C147.909 62.0481 148.039 62.1135 148.202 62.3421C148.332 62.5055 148.462 62.7997 148.56 63.1264L148.886 63.0937C148.872 62.8652 148.851 62.5994 148.832 62.3561C148.809 62.0426 148.788 61.7665 148.788 61.6561C148.758 61.6661 148.703 61.673 148.616 61.6778C148.518 61.6832 148.38 61.6859 148.19 61.6872C147.993 61.6886 147.741 61.6886 147.42 61.6886H144.522V61.9828C145.173 62.0481 145.271 62.1135 145.271 62.8976V66.4264C145.271 67.178 145.238 67.2432 144.391 67.3086V67.6027ZM150.547 67.472C150.97 67.6026 151.458 67.766 152.045 67.766C153.282 67.766 154.161 66.9819 154.161 65.9037C154.161 65.0214 153.575 64.564 152.566 64.0412C151.784 63.6491 151.426 63.355 151.426 62.7997C151.426 62.3095 151.752 61.8847 152.338 61.8847C153.184 61.8847 153.445 62.5382 153.608 63.1264L153.934 63.061C153.868 62.5055 153.803 62.0481 153.771 61.7213L153.709 61.7097L153.633 61.694L153.623 61.6921L153.62 61.6916L153.515 61.6704L153.432 61.6543L153.328 61.6352L153.275 61.6261L153.202 61.6144C153.152 61.6068 153.099 61.5994 153.045 61.5927C152.982 61.5849 152.916 61.578 152.849 61.5725C152.738 61.5635 152.621 61.5579 152.501 61.5579C151.198 61.5579 150.481 62.3095 150.481 63.2244C150.481 64.1392 151.068 64.5967 152.012 65.1194C152.761 65.5443 153.12 65.8383 153.12 66.4264C153.12 67.0146 152.761 67.4066 152.175 67.4066C151.263 67.4066 150.807 66.4918 150.612 65.9037L150.286 65.9689C150.351 66.3938 150.481 67.2432 150.547 67.472ZM162.792 67.766C163.476 67.766 164.192 67.6027 164.453 67.5374C164.542 67.3584 164.65 67.0715 164.757 66.7896L164.765 66.7691C164.851 66.5435 164.935 66.3228 165.006 66.165L164.681 66.0344C164.192 66.9819 163.704 67.4066 162.889 67.4066C161.554 67.4066 160.675 66.263 160.675 64.564C160.675 63.0937 161.359 61.9828 162.759 61.9828C162.807 61.9828 162.855 61.9836 162.904 61.9855C162.943 61.9869 162.981 61.989 163.02 61.9919C163.084 61.9965 163.148 62.0031 163.21 62.0118C163.356 62.0323 163.493 62.0648 163.606 62.1135C164.062 62.2768 164.322 62.6363 164.518 63.3223L164.843 63.2571C164.81 63.0391 164.777 62.7697 164.748 62.5015C164.72 62.2468 164.697 61.9935 164.681 61.7867C164.612 61.7781 164.514 61.7582 164.393 61.7334C164.217 61.6977 163.993 61.6521 163.737 61.6163C163.589 61.5954 163.43 61.5779 163.264 61.5677C163.225 61.5653 163.187 61.5634 163.148 61.5619C163.084 61.5594 163.02 61.5579 162.954 61.5579C160.805 61.5579 159.372 62.8322 159.372 64.7274C159.372 66.2304 160.447 67.766 162.792 67.766ZM166.016 64.6947C166.016 66.4263 167.318 67.766 169.11 67.766C170.836 67.766 172.171 66.5245 172.203 64.5967C172.203 62.767 170.803 61.5579 169.175 61.5579C167.156 61.5579 166.016 63.0937 166.016 64.6947ZM178.554 67.6681H178.847L178.945 67.4066C178.684 67.3086 178.554 67.2432 178.326 66.9819C178.184 66.8389 178.041 66.6614 177.848 66.386C177.777 66.2834 177.698 66.1673 177.609 66.0344C177.48 65.8236 177.327 65.5648 177.186 65.3254L177.17 65.2997C177.032 65.0664 176.907 64.8544 176.828 64.7274C177.446 64.4659 177.968 64.0412 177.968 63.2244C177.968 63.1353 177.961 63.0497 177.948 62.9677C177.914 62.7449 177.835 62.5489 177.725 62.3848C177.623 62.2325 177.494 62.1079 177.349 62.0154C176.958 61.7867 176.502 61.6886 175.753 61.6886H173.213V61.9828C173.897 62.0481 173.995 62.1135 173.995 62.8649V66.4264C173.995 67.178 173.929 67.2432 173.213 67.3086V67.6027H175.883V67.3086C175.2 67.2432 175.102 67.178 175.102 66.4264V65.0541H175.33C175.655 65.0541 175.786 65.1194 175.949 65.3809L176.224 65.8759C176.338 66.0786 176.455 66.2815 176.578 66.4795C176.678 66.6403 176.782 66.7979 176.893 66.9492C177.219 67.4066 177.577 67.6027 178.554 67.6681ZM181.948 65.2652C181.968 65.2706 181.989 65.2745 182.011 65.277C182.06 65.2828 182.114 65.2828 182.169 65.2828C183.113 65.2828 184.253 64.7274 184.253 63.4204C184.253 62.7997 183.993 62.3748 183.569 62.0808C183.211 61.8194 182.657 61.6886 181.973 61.6886H179.466V61.9828C180.15 62.0481 180.247 62.1135 180.247 62.8976V66.4264C180.247 67.178 180.182 67.2107 179.466 67.3086V67.6027H182.234V67.3086L182.21 67.3057C181.418 67.2107 181.354 67.2028 181.354 66.4264V65.1194L181.908 65.2502C181.915 65.2537 181.923 65.2569 181.93 65.2596L181.948 65.2652ZM185.393 64.6947C185.393 66.4263 186.696 67.766 188.487 67.766C190.213 67.766 191.548 66.5245 191.58 64.5967C191.58 62.767 190.18 61.5579 188.552 61.5579C186.533 61.5579 185.393 63.0937 185.393 64.6947ZM197.931 67.6681H198.224L198.322 67.4066C198.061 67.3086 197.931 67.2432 197.703 66.9819C197.508 66.7858 197.312 66.5245 196.986 66.0344C196.726 65.6095 196.368 64.9887 196.205 64.7274C196.824 64.4659 197.345 64.0412 197.345 63.2244C197.345 62.6688 197.084 62.2441 196.726 62.0154C196.335 61.7867 195.879 61.6886 195.13 61.6886H192.59V61.9828C193.274 62.0481 193.372 62.1135 193.372 62.8649V66.4264C193.372 67.178 193.306 67.2432 192.59 67.3086V67.6027H195.26V67.3086C194.577 67.2432 194.479 67.178 194.479 66.4264V65.0541H194.707C195.032 65.0541 195.163 65.1194 195.326 65.3809C195.619 65.9037 195.912 66.4591 196.27 66.9492C196.596 67.4066 196.954 67.6027 197.931 67.6681ZM202.295 67.6027H204.77V67.2759C204.151 67.2107 204.086 67.1125 203.76 66.2957L202.831 63.8038C202.541 63.0252 202.251 62.2476 201.969 61.4927L201.578 61.5579L199.69 66.3284C199.364 67.1125 199.234 67.2107 198.647 67.2759V67.5699H200.862V67.2759C200.145 67.2107 199.95 67.1452 200.145 66.5572C200.243 66.263 200.373 65.9037 200.504 65.577H202.36C202.427 65.7667 202.495 65.9506 202.558 66.1221L202.571 66.1596L202.634 66.3321L202.703 66.5218L202.74 66.625C202.756 66.67 202.77 66.7127 202.784 66.7531C202.825 66.8767 202.849 66.9712 202.846 67.0446C202.845 67.0722 202.839 67.0969 202.829 67.1189C202.781 67.2242 202.627 67.2716 202.295 67.3086V67.6027ZM209.232 62.3421C209.329 62.4729 209.492 62.7997 209.59 63.1917L209.981 63.1589C209.967 63.0366 209.955 62.9072 209.944 62.7754C209.931 62.6098 209.919 62.4405 209.91 62.2768L209.902 62.1221L209.898 62.0283L209.892 61.8627C209.886 61.6947 209.883 61.5449 209.883 61.4273H209.622C209.46 61.6234 209.362 61.6561 209.101 61.6561H205.454C205.161 61.6561 205.063 61.6561 204.933 61.4273H204.672C204.672 61.8847 204.607 62.5709 204.542 63.1917H204.868L204.908 63.0811C204.993 62.8435 205.066 62.6404 205.148 62.4925C205.173 62.448 205.199 62.4086 205.226 62.3748C205.389 62.1135 205.519 62.0481 206.04 62.0481H206.691V66.3938C206.691 67.1452 206.626 67.2107 205.812 67.2759V67.5699H208.71V67.2759C207.896 67.2107 207.799 67.1452 207.799 66.3938V62.0481H208.483C209.004 62.0481 209.069 62.1462 209.232 62.3421ZM212.716 62.8976C212.716 62.1135 212.781 62.0481 213.498 61.9828V61.6886H210.827V61.9828C211.511 62.0481 211.609 62.1135 211.609 62.8976V66.4264C211.609 67.178 211.544 67.2432 210.827 67.3086V67.6027H213.498V67.3086C212.781 67.2432 212.716 67.2107 212.716 66.4264V62.8976ZM216.95 67.7008H217.373C217.757 66.7175 218.349 65.2869 218.786 64.232L218.861 64.0511L218.877 64.0126L219.146 63.3609C219.208 63.209 219.259 63.0848 219.294 62.9956C219.62 62.1462 219.783 62.0481 220.402 61.9828V61.6886H218.253V61.9828C219.002 62.0481 219.099 62.1787 218.871 62.767C218.833 62.8746 218.79 62.9908 218.744 63.1143C218.684 63.2754 218.618 63.449 218.547 63.6325L218.416 63.9716C218.349 64.1443 218.278 64.3233 218.205 64.5069C217.995 65.0361 217.765 65.6038 217.536 66.165C217.326 65.5846 217.03 64.7765 216.761 64.0422L216.729 63.9531C216.512 63.3587 216.315 62.8215 216.201 62.5055C216.152 62.3714 216.121 62.2783 216.138 62.2092C216.166 62.0929 216.326 62.0442 216.754 61.9828V61.6886H214.149V61.9828C214.735 62.0154 214.866 62.1462 215.126 62.8322C215.549 63.9432 216.592 66.7205 216.95 67.7008ZM223.105 67.6027H225.58V67.2759C224.961 67.2107 224.896 67.1125 224.57 66.2957C224.277 65.5115 223.976 64.7028 223.675 63.8941L222.779 61.4927L222.388 61.5579L220.5 66.3284C220.174 67.1125 220.044 67.2107 219.457 67.2759V67.5699H221.672V67.2759C220.956 67.2107 220.76 67.1452 220.956 66.5572L220.995 66.4409L221.027 66.348C221.056 66.2639 221.087 66.1768 221.119 66.0886C221.181 65.9182 221.248 65.7434 221.314 65.577H223.17C223.333 66.0344 223.496 66.4591 223.593 66.7531C223.724 67.1452 223.691 67.2432 223.105 67.3086V67.6027ZM226.667 67.4961C227.072 67.6218 227.537 67.766 228.087 67.766C229.358 67.766 230.237 66.9819 230.204 65.9037C230.204 65.0214 229.618 64.564 228.609 64.0412C227.827 63.6491 227.469 63.355 227.469 62.7997C227.469 62.3095 227.795 61.8847 228.381 61.8847C229.227 61.8847 229.488 62.5382 229.651 63.1264L229.977 63.061C229.911 62.5055 229.846 62.0481 229.814 61.7213C229.775 61.7148 229.724 61.7042 229.663 61.6916L229.646 61.6883L229.625 61.684C229.553 61.6695 229.471 61.6527 229.378 61.6364C229.329 61.6278 229.278 61.6195 229.225 61.6116C229.19 61.6063 229.155 61.6013 229.119 61.5967C229.019 61.5838 228.913 61.5729 228.801 61.5661C228.718 61.561 228.632 61.5579 228.544 61.5579C227.241 61.5579 226.524 62.3095 226.524 63.2244C226.524 64.1392 227.11 64.5967 228.055 65.1194C228.804 65.5443 229.162 65.8383 229.162 66.4264C229.162 67.0146 228.804 67.4066 228.218 67.4066C227.306 67.4066 226.85 66.4918 226.655 65.9037L226.329 65.9689L226.331 65.9801L226.334 65.9973L226.396 66.3989C226.413 66.508 226.431 66.6219 226.449 66.7336C226.476 66.8988 226.504 67.0591 226.529 67.192C226.552 67.3144 226.573 67.4134 226.59 67.472L226.667 67.4961Z" fill="#807F80"/>
<path fill-rule="evenodd" clip-rule="evenodd" d="M113.779 16.4677H119.608L121.172 21.4015H123.419L117.85 4.28034H115.57L110.001 21.4015H112.249L113.779 16.4677ZM116.059 9.05079C116.319 8.16852 116.677 6.63294 116.677 6.63294H116.743C116.743 6.63294 117.068 8.16852 117.329 9.05079L119.022 14.4747H114.333L116.059 9.05079Z" fill="#807F80"/>
<path fill-rule="evenodd" clip-rule="evenodd" d="M130.453 4.28034C132.081 4.28034 132.765 4.411 133.351 4.67249C134.947 5.32597 135.957 7.05763 135.957 9.31211C135.957 11.5013 134.85 13.3311 133.156 13.9519V13.9846C133.156 13.9846 133.319 14.2132 133.612 14.7688L136.901 21.4015H134.426L131.17 14.6054H127.848V21.4015H125.666V4.28034H130.453ZM131.007 12.4816C132.7 12.4816 133.742 11.3053 133.742 9.37753C133.742 8.10327 133.319 7.221 132.505 6.73089C132.081 6.50211 131.593 6.33874 130.388 6.33874H127.88V12.4816H131.007Z" fill="#807F80"/>
<path fill-rule="evenodd" clip-rule="evenodd" d="M144.945 4.28034H139.8V21.4015H144.945C149.667 21.4015 152.794 18.2322 152.794 12.8083C152.794 7.41708 149.7 4.28034 144.945 4.28034ZM150.547 12.8083C150.547 17.0232 148.267 19.3104 144.782 19.3104H141.982V6.37145H144.782C148.235 6.37145 150.547 8.62593 150.547 12.8083Z" fill="#807F80"/>
<path fill-rule="evenodd" clip-rule="evenodd" d="M175.395 4.28034H169.728V21.4015H171.91V15.0628H175.395C178.228 15.0628 180.28 12.8736 180.28 9.63885C180.28 6.40415 178.228 4.28034 175.395 4.28034ZM178.033 9.63885C178.033 11.6974 176.893 12.9717 175.037 12.9717H171.878V6.37145H175.037C176.893 6.37145 178.033 7.58045 178.033 9.63885Z" fill="#807F80"/>
<path d="M183.081 4.28034H185.263V21.4015H183.081V4.28034Z" fill="#807F80"/>
<path fill-rule="evenodd" clip-rule="evenodd" d="M204.314 12.7103C204.314 7.77653 200.862 3.9863 196.368 3.9863C191.906 3.9863 188.389 7.80923 188.389 12.7103C188.389 17.7421 191.874 21.663 196.368 21.663C200.83 21.663 204.314 17.7421 204.314 12.7103ZM202.067 12.7103C202.067 16.5658 199.527 19.4738 196.368 19.4738C193.209 19.4738 190.636 16.5658 190.636 12.7103C190.636 8.98537 193.209 6.17553 196.368 6.17553C199.527 6.17553 202.067 8.98537 202.067 12.7103Z" fill="#807F80"/>
<path fill-rule="evenodd" clip-rule="evenodd" d="M214.117 4.28034H219.262C224.017 4.28034 227.111 7.41708 227.111 12.8083C227.111 18.2322 223.984 21.4015 219.262 21.4015H214.117V4.28034ZM219.099 19.3104C222.584 19.3104 224.864 17.0232 224.864 12.8083C224.864 8.62593 222.551 6.37145 219.099 6.37145H216.299V19.3104H219.099Z" fill="#807F80"/>
<path d="M239.356 4.28034H230.335V21.4015H239.714V19.3104H232.517V13.8212H238.085V11.73H232.517V6.37145H239.356V4.28034Z" fill="#807F80"/>
<path d="M96.1605 29.5046H100.817L106.028 39.5682C106.777 40.9733 107.591 43.2278 107.591 43.2278H107.656C107.656 43.2278 107.461 40.9079 107.461 39.5682V29.5046H112.053V51.0368H107.428L102.218 41.006C101.469 39.6009 100.655 37.3464 100.655 37.3464H100.589C100.589 37.3464 100.785 39.6663 100.785 41.006V51.0368H96.1605V29.5046Z" fill="#807F80"/>
<path d="M128.89 29.5046H117.133V51.0041H129.248V46.4952H121.725V42.4436H127.457V37.9345H121.725V34.0136H128.89V29.5046Z" fill="#807F80"/>
<path d="M141.851 29.1453C146.671 29.1453 149.081 32.0206 149.081 32.0206L146.867 35.9742C146.867 35.9742 144.945 33.981 142.307 33.981C138.367 33.981 136.771 36.8565 136.771 40.0585C136.771 44.1427 139.246 46.5933 142.145 46.5933C144.359 46.5933 145.955 45.025 145.955 45.025V43.3586H143.317V38.8822H150.026V51.037H146.183V50.4489C146.183 50.2924 146.186 50.1361 146.191 49.9979C146.201 49.7321 146.215 49.5339 146.215 49.5339H146.15C146.15 49.5339 144.327 51.3964 141.2 51.3964C136.38 51.3964 131.984 47.2795 131.984 40.2218C132.016 33.9485 136.12 29.1453 141.851 29.1453Z" fill="#807F80"/>
<path fill-rule="evenodd" clip-rule="evenodd" d="M172.562 40.1239C172.562 33.9485 168.393 29.1453 162.727 29.1453C157.028 29.1453 152.891 33.9485 152.891 40.1239C152.891 46.4626 157.06 51.3964 162.727 51.3964C168.426 51.3964 172.562 46.4299 172.562 40.1239ZM167.807 40.1239C167.807 43.7833 165.527 46.5606 162.727 46.5606C159.893 46.5606 157.646 43.7833 157.646 40.1239C157.646 36.595 159.926 33.9485 162.727 33.9485C165.56 33.9485 167.807 36.595 167.807 40.1239Z" fill="#807F80"/>
<path d="M167.449 23.5908H162.955L160.838 28.0997H164.355L167.449 23.5908Z" fill="#807F80"/>
<path d="M184.904 29.1453C189.561 29.1453 191.939 32.184 191.939 32.184L189.822 36.1703C189.822 36.1703 187.738 33.981 185.132 33.981C181.55 33.981 179.824 37.0198 179.824 40.1239C179.824 43.3259 181.648 46.5933 185.132 46.5933C187.966 46.5933 190.115 43.9466 190.115 43.9466L192.492 47.8023C192.492 47.8023 189.855 51.4291 184.937 51.4291C179.042 51.4291 175.102 46.6587 175.102 40.2545C175.069 33.9485 179.27 29.1453 184.904 29.1453Z" fill="#807F80"/>
<path d="M200.536 29.5046H195.945V51.0368H200.536V29.5046Z" fill="#807F80"/>
<path fill-rule="evenodd" clip-rule="evenodd" d="M214.182 29.1453C219.848 29.1453 224.017 33.9485 224.017 40.1239C224.017 46.4299 219.881 51.3964 214.182 51.3964C208.483 51.3964 204.347 46.4626 204.347 40.1239C204.379 33.9485 208.515 29.1453 214.182 29.1453ZM214.182 46.5606C216.982 46.5606 219.262 43.7833 219.262 40.1239C219.262 36.595 217.015 33.9485 214.182 33.9485C211.348 33.9485 209.101 36.595 209.101 40.1239C209.134 43.7833 211.381 46.5606 214.182 46.5606Z" fill="#807F80"/>
<path d="M233.331 46.5279C230.954 46.5279 228.837 44.3061 228.837 44.3061L226.427 48.3249C226.427 48.3249 228.869 51.3964 233.266 51.3964C237.499 51.3964 239.877 48.2924 239.877 44.6982C239.877 40.5331 236.696 39.1047 234.234 37.9986C232.678 37.3 231.409 36.7301 231.409 35.6802C231.409 34.4712 232.452 33.981 233.396 33.981C235.643 33.981 237.532 35.8762 237.532 35.8762L239.486 31.5632C239.486 31.5632 237.499 29.1126 233.461 29.1126C229.716 29.1126 226.818 31.7266 226.818 35.7129C226.818 39.7834 230.038 41.3187 232.507 42.4955C234.041 43.2266 235.285 43.8195 235.285 44.7962C235.285 46.1032 234.275 46.5279 233.331 46.5279Z" fill="#807F80"/>
</svg>
