<svg width="64" height="68" viewBox="0 0 64 68" fill="none" xmlns="http://www.w3.org/2000/svg">
<path fill-rule="evenodd" clip-rule="evenodd" d="M11.9997 30.6667L30.333 0.666748L48.6663 30.6667H11.9997ZM36.7663 24.0001L30.333 13.4667L23.8663 24.0001H36.7663ZM48.6663 37.3334C40.3663 37.3334 33.6663 44.0334 33.6663 52.3334C33.6663 60.6334 40.3663 67.3334 48.6663 67.3334C56.9663 67.3334 63.6663 60.6334 63.6663 52.3334C63.6663 44.0334 56.9663 37.3334 48.6663 37.3334ZM40.333 52.3334C40.333 56.9334 44.0663 60.6667 48.6663 60.6667C53.2663 60.6667 56.9997 56.9334 56.9997 52.3334C56.9997 47.7334 53.2663 44.0001 48.6663 44.0001C44.0663 44.0001 40.333 47.7334 40.333 52.3334ZM0.333008 65.6667H26.9997V39.0001H0.333008V65.6667ZM20.333 45.6667H6.99967V59.0001H20.333V45.6667Z" fill="#2A90CB"/>
</svg>
