<svg width="68" height="60" viewBox="0 0 68 60" fill="none" xmlns="http://www.w3.org/2000/svg">
<path fill-rule="evenodd" clip-rule="evenodd" d="M67.3337 13.3333V20H60.667V26.6667H67.3337V33.3333H60.667V40H67.3337V46.6667H60.667V53.3333C60.667 57 57.667 60 54.0003 60H7.33366C3.66699 60 0.666992 57 0.666992 53.3333V6.66667C0.666992 3 3.66699 0 7.33366 0H54.0003C57.667 0 60.667 3 60.667 6.66667V13.3333H67.3337ZM7.33366 53.3333H54.0003V6.66667H7.33366V53.3333ZM14.0003 33.3333H30.667V46.6667H14.0003V33.3333ZM47.3337 13.3333H34.0003V23.3333H47.3337V13.3333ZM14.0003 13.3333H30.667V30H14.0003V13.3333ZM47.3337 26.6667H34.0003V46.6667H47.3337V26.6667Z" fill="#2A90CB"/>
</svg>
