<svg width="60" height="68" viewBox="0 0 60 68" fill="none" xmlns="http://www.w3.org/2000/svg">
<path fill-rule="evenodd" clip-rule="evenodd" d="M53.3333 7.33342H50V0.666748H43.3333V7.33342H16.6667V0.666748H10V7.33342H6.66667C3 7.33342 0 10.3334 0 14.0001V60.6668C0 64.3334 3 67.3334 6.66667 67.3334H53.3333C57 67.3334 60 64.3334 60 60.6668V14.0001C60 10.3334 57 7.33342 53.3333 7.33342ZM53.3333 60.6667H6.66667V27.3334H53.3333V60.6667ZM6.66667 14.0001V20.6667H53.3333V14.0001H6.66667ZM13.3333 34.0001H46.6667V40.6667H13.3333V34.0001ZM36.6667 47.3334H13.3333V54.0001H36.6667V47.3334Z" fill="#2A90CB"/>
</svg>
