<svg width="40" height="40" viewBox="0 0 40 40" fill="none" xmlns="http://www.w3.org/2000/svg">
<path fill-rule="evenodd" clip-rule="evenodd" d="M35.2093 39.603H4.89818C2.43708 39.603 0.443359 37.5896 0.443359 35.1044V4.49861C0.443359 2.01662 2.43708 0 4.89818 0H35.2093C37.6704 0 39.6641 2.01332 39.6641 4.49861V35.1077C39.6641 37.5896 37.6704 39.603 35.2093 39.603ZM33.9589 1.90825C36.054 1.90825 37.7601 3.63112 37.7601 5.74676V33.8474C37.7601 35.963 36.054 37.6859 33.9589 37.6859H6.12851C4.03347 37.6859 2.32736 35.963 2.32736 33.8474V5.74346C2.32736 3.62782 4.03347 1.90495 6.12851 1.90495H33.9589V1.90825ZM33.9589 1.24814H6.12851C3.66741 1.24814 1.67368 3.26146 1.67368 5.74676V33.8474C1.67368 36.3294 3.66741 38.346 6.12851 38.346H33.9557C36.4135 38.346 38.4105 36.3327 38.4105 33.8474V5.74346C38.4105 3.26146 36.4168 1.24814 33.9589 1.24814ZM24.0725 16.6004H32.9102V24.7593H24.0725V33.6806H15.993V31.9115V24.7593H7.15849V16.6004H15.993V7.60318L24.0725 5.90671V7.67579V16.6004Z" fill="#807F80"/>
</svg>
