<svg width="227" height="48" viewBox="0 0 227 48" fill="none" xmlns="http://www.w3.org/2000/svg">
<path fill-rule="evenodd" clip-rule="evenodd" d="M19.0933 5.89901C19.0514 2.60253 21.8459 -0.0413438 25.042 0.000489674C28.2799 0.0423232 30.9238 2.66947 30.9154 5.92411C30.907 9.17039 28.2297 11.8143 24.9583 11.8143C21.7037 11.8059 19.0849 9.17039 19.0933 5.89901ZM205.234 32.3878C207.51 31.9025 209.727 31.434 211.953 30.9655C212.254 32.8814 213.475 33.8938 215.249 34.3038C216.923 34.6886 219.031 33.5842 219.734 32.0197C220.336 30.6894 219.893 29.2503 218.604 28.3634C217.684 27.7275 216.638 27.3929 215.575 27.1084C213.676 26.6064 211.819 25.9956 210.179 24.8578C208.129 23.4354 206.531 21.645 205.929 19.1684C205.184 16.1062 205.887 13.3117 207.761 10.8185C209.56 8.42558 212.011 7.0618 214.981 6.7857C218.495 6.46777 221.466 7.65584 223.825 10.3081C225.063 11.7053 225.825 13.3368 226.184 15.1608C226.199 15.2365 226.207 15.3123 226.217 15.3942C226.224 15.4569 226.232 15.5232 226.243 15.5958C225.503 15.7522 224.766 15.9075 224.029 16.0629L224.025 16.0638L224.023 16.0643L224.022 16.0646L224.018 16.0653C222.55 16.3749 221.082 16.6845 219.591 17.0014C219.58 16.9449 219.567 16.8893 219.554 16.8341L219.554 16.8339L219.554 16.8338L219.554 16.8336L219.554 16.8335C219.53 16.7338 219.507 16.6351 219.491 16.5329C219.265 14.8177 217.617 13.4874 215.852 13.5795C214.086 13.6799 212.622 15.211 212.572 16.9345C212.538 18.3066 213.199 19.2521 214.295 19.9716C215.458 20.7246 216.764 21.1095 218.077 21.4609C219.909 21.9629 221.641 22.6573 223.156 23.8203C224.98 25.2259 226.285 26.9829 226.728 29.2838C227.222 31.8691 226.628 34.2452 225.155 36.3787C223.181 39.2234 220.428 40.8298 216.973 41.1812C212.246 41.6581 207.326 38.6796 205.711 34.0695C205.571 33.6863 205.467 33.2809 205.359 32.8631L205.358 32.861C205.318 32.7048 205.277 32.5469 205.234 32.3878ZM187.573 31.4512L192.351 36.2286C188.695 40.1526 182.286 42.3195 175.76 40.6629C169.167 38.9896 163.67 32.8317 163.059 25.7116C162.298 16.7927 167.887 10.409 173.794 7.97424C180.32 5.28017 188.042 7.42204 192.342 11.848C191.543 12.6437 190.745 13.4395 189.944 14.2383L189.937 14.2451L189.931 14.2513L189.901 14.2814L189.897 14.2854L189.862 14.3203C189.09 15.0903 188.314 15.8633 187.532 16.6421C185.264 14.3999 182.478 13.4461 179.282 13.6971C176.504 13.9146 174.254 15.178 172.413 17.2445C168.891 21.202 169.108 27.477 172.773 31.2839C176.571 35.2413 183.499 35.6178 187.573 31.4512ZM111.499 8.36239C111.468 8.36698 111.433 8.37194 111.395 8.37544V39.6418H115.537V39.123C115.537 38.2907 115.537 37.4585 115.538 36.6262C115.539 34.1285 115.541 31.6309 115.528 29.1332C115.52 28.7316 115.645 28.6396 116.022 28.6479C117.277 28.673 118.532 28.673 119.787 28.6479C120.121 28.6396 120.314 28.7567 120.49 29.0328C121.35 30.3591 122.212 31.6841 123.074 33.0089L123.078 33.0152C124.46 35.1398 125.841 37.2637 127.216 39.3908C127.359 39.5999 127.501 39.6753 127.752 39.6753C128.862 39.6627 129.968 39.6643 131.076 39.6658C131.446 39.6664 131.816 39.6669 132.186 39.6669C132.26 39.6669 132.333 39.6579 132.426 39.6465L132.482 39.6398L132.538 39.6334L131.45 37.9451L131.442 37.9335L131.405 37.8763L131.374 37.8272L131.338 37.7714L131.323 37.7488L131.285 37.69C129.21 34.4687 127.15 31.2716 125.066 28.0455C125.305 27.9499 125.531 27.8578 125.749 27.769L125.749 27.7689L125.75 27.7685L125.751 27.7683C126.104 27.6243 126.437 27.4887 126.773 27.3595C127.953 26.9077 128.957 26.2132 129.743 25.2092C131.341 23.1678 132.069 20.8836 132.027 18.2732C131.985 15.6879 131.157 13.4875 129.333 11.6636C127.275 9.59698 124.757 8.47584 121.87 8.3838C119.432 8.31208 116.989 8.32575 114.548 8.33941C113.572 8.34488 112.596 8.35034 111.621 8.35034C111.582 8.35034 111.543 8.35601 111.499 8.36239ZM120.105 24.5399H115.553C115.553 20.4569 115.553 16.4744 115.545 12.45C115.589 12.4471 115.633 12.4431 115.675 12.4391C115.753 12.4319 115.829 12.4249 115.905 12.4249C116.4 12.4249 116.895 12.4222 117.39 12.4195C118.626 12.4126 119.861 12.4058 121.092 12.4417C122.665 12.4919 124.196 12.8349 125.451 13.8556C127.2 15.278 127.836 17.1521 127.543 19.386C127.3 21.2936 126.229 22.6407 124.732 23.72C123.878 24.3391 122.891 24.5232 121.862 24.5566C121.51 24.5667 121.159 24.5586 120.808 24.5506C120.573 24.5452 120.339 24.5399 120.105 24.5399ZM87.8086 8.3753L87.8735 8.37184C88.0048 8.36477 88.1201 8.35857 88.2353 8.35857C89.1058 8.35857 89.9753 8.35764 90.8445 8.35671C92.582 8.35485 94.3182 8.35299 96.0582 8.35857C99.9152 8.36693 103.413 11.3873 103.973 15.1858C104.232 16.9679 103.739 18.5994 102.919 20.1472C102.66 20.6325 102.392 21.1178 102.099 21.6449C102.201 21.6923 102.301 21.7398 102.398 21.7863L102.399 21.7866C102.628 21.8959 102.847 22.0003 103.069 22.0883C106.224 23.4186 107.83 25.9035 108.274 29.1916C108.893 33.8268 105.889 38.236 101.388 39.3655C100.61 39.558 99.7981 39.6584 98.9949 39.6667C96.2965 39.6918 93.5982 39.6887 90.9033 39.6856H90.9023H90.9011H90.9H90.8988H90.8976H90.8964H90.8952C89.9998 39.6845 89.1047 39.6835 88.2102 39.6835C88.132 39.6835 88.057 39.677 87.9771 39.67L87.9768 39.67L87.9764 39.67C87.9284 39.6658 87.8787 39.6615 87.8254 39.6584C87.8086 29.2167 87.8086 18.8086 87.8086 8.3753ZM91.8999 24.8159V35.6758C91.9521 35.6791 92.0005 35.6836 92.0465 35.6879L92.0468 35.688C92.1188 35.6947 92.1851 35.7009 92.2514 35.7009H99.271C99.4634 35.7009 99.6642 35.6926 99.8567 35.6591C103.705 35.0149 105.646 30.6976 103.555 27.4012C102.35 25.5103 100.543 24.7155 98.3507 24.7155C97.1148 24.7205 95.8759 24.7346 94.6376 24.7486L94.6366 24.7486C93.813 24.758 92.9897 24.7673 92.1677 24.774C92.1151 24.7793 92.0659 24.7878 92.0096 24.7976L91.9803 24.8027L91.9355 24.8102L91.8999 24.8159ZM91.925 12.3411C91.9189 12.3687 91.9116 12.3941 91.9049 12.4177C91.8933 12.4583 91.8832 12.4934 91.8832 12.5252C91.8832 15.3531 91.8832 18.1727 91.8748 21.0006C91.8748 21.26 92.0087 21.3018 92.2179 21.2851C92.555 21.2636 92.892 21.2407 93.2291 21.2178C94.0717 21.1606 94.9144 21.1034 95.757 21.0676C97.1961 21.0006 98.3674 20.4317 99.2292 19.2855C100.292 17.8715 100.493 16.3237 99.7312 14.734C98.9865 13.1778 97.6981 12.3495 95.9411 12.3244C95.1441 12.3132 94.347 12.3169 93.5476 12.3207L93.547 12.3207C93.1465 12.3225 92.7454 12.3244 92.3434 12.3244C92.2087 12.3244 92.0815 12.3319 91.9476 12.3398L91.9475 12.3398L91.925 12.3411ZM83.8851 35.6175H70.2724V35.1322C70.2724 34.419 70.273 33.7053 70.2735 32.9914C70.2751 30.8492 70.2766 28.7046 70.2641 26.5647C70.2557 26.1631 70.3728 26.0627 70.7744 26.0627C73.0647 26.0752 75.3549 26.0737 77.6452 26.0721C78.4088 26.0716 79.1724 26.0711 79.936 26.0711H80.4547V21.9546H70.3059V12.3999H83.8934V8.30856H66.1477V39.7255H83.8851V35.6175ZM161.244 39.6751C160.881 39.6751 160.522 39.6746 160.167 39.6741C159.116 39.6725 158.095 39.671 157.069 39.6835C156.823 39.6835 156.761 39.5493 156.687 39.3912L156.668 39.3488C156.489 38.95 156.309 38.5517 156.129 38.1536C155.646 37.0819 155.163 36.011 154.693 34.9312C154.551 34.6049 154.375 34.4878 154.015 34.4878C149.857 34.5045 145.707 34.5045 141.549 34.4878C141.206 34.4878 141.039 34.5882 140.896 34.9061C140.559 35.6822 140.212 36.4536 139.866 37.2241C139.551 37.9239 139.237 38.6229 138.93 39.3237C138.813 39.5915 138.671 39.6919 138.37 39.6835C137.382 39.671 136.394 39.6725 135.378 39.6741H135.377H135.377H135.377H135.377H135.376C135.033 39.6746 134.687 39.6751 134.337 39.6751C136.877 33.7078 139.412 27.7567 141.95 21.8003L142.011 21.6568L142.096 21.4573C143.989 17.0135 145.883 12.5665 147.782 8.10758C151.154 15.9904 154.498 23.8405 157.849 31.7067C158.98 34.3604 160.111 37.0159 161.244 39.6751ZM147.899 18.4656H147.732C146.05 22.6907 144.368 26.9076 142.678 31.1411H152.903C151.229 26.8908 149.564 22.674 147.899 18.4656ZM62.215 12.4084V8.30872C56.2914 8.30872 50.3845 8.30872 44.4609 8.30036V39.7173H48.594V26.0629H58.7679V21.9548H48.6108V12.4084H62.215ZM195.488 7.05348H202.206V40.9721H195.488V7.05348ZM12.9439 48.0001H24.264V47.54V47.5385C24.264 45.4641 24.264 43.3812 24.2556 41.3068C24.2556 41.0223 24.3309 40.8131 24.5234 40.604C27.4427 37.5006 30.3536 34.3889 33.2646 31.2772L33.2666 31.2751C34.1116 30.3799 34.9316 29.4679 35.467 28.3384C35.877 27.4682 36.0694 26.5563 35.8937 25.5941C35.6344 24.155 34.7977 23.059 33.7686 22.1136C32.0631 20.5362 30.3459 18.9682 28.6282 17.3996L28.6281 17.3995L28.6275 17.399C27.0927 15.9975 25.5575 14.5956 24.0297 13.1863C23.7369 12.9102 23.4608 12.8098 23.0592 12.8098C19.5808 12.8349 16.1107 12.8265 12.6322 12.8182H12.6322H12.6322L12.6259 12.8182C12.3164 12.8098 12.0905 12.9018 11.8813 13.1361C11.4458 13.6194 11.0017 14.0899 10.5583 14.5597L10.5579 14.5601C10.3796 14.749 10.2014 14.9379 10.0239 15.1274L10.0235 15.1278L10.0233 15.128C9.27048 15.9394 8.51768 16.7507 7.75652 17.5621C7.2361 18.1217 6.71193 18.6794 6.18746 19.2374L6.18738 19.2375L6.18717 19.2378C5.14344 20.3483 4.09852 21.4601 3.07954 22.5905C2.41857 23.3267 1.7827 24.0965 1.26397 24.9331C0.502599 26.163 0.301794 27.5101 0.862363 28.9073C1.2807 29.9364 1.9584 30.7815 2.7616 31.5261C3.39392 32.1196 4.03727 32.702 4.6819 33.2857L4.68195 33.2857L4.68204 33.2858L4.68262 33.2863L4.68304 33.2867C5.01041 33.5831 5.3381 33.8798 5.66485 34.1783C6.16387 34.6347 6.66288 35.0954 7.16301 35.5572C7.64396 36.0012 8.12594 36.4462 8.60993 36.8891C8.95508 37.2045 9.30023 37.5203 9.64552 37.8363L9.64845 37.839C10.6581 38.763 11.669 39.6881 12.6845 40.604C12.8686 40.7713 12.9271 40.9554 12.9271 41.198C12.9216 42.6089 12.9234 44.016 12.9253 45.4244L12.9253 45.4257C12.9262 46.1299 12.9271 46.8345 12.9271 47.54C12.9271 47.683 12.9347 47.826 12.9426 47.9762L12.9439 48.0001ZM15.3116 21.4944C15.8973 20.8669 16.483 20.2394 17.0938 19.5784C18.5663 20.9255 20.0054 22.2391 21.4444 23.5443L21.5404 23.6315L21.5407 23.6318L21.5414 23.6325C22.2447 24.2717 22.9406 24.9043 23.6365 25.5523C23.8791 25.7782 24.1134 26.0124 24.3142 26.2802C24.833 26.9579 24.8832 27.6941 24.4062 28.4053C24.0548 28.9408 23.6281 29.4344 23.1931 29.903C22.4787 30.6827 21.7583 31.4504 21.0373 32.2187L21.0363 32.2197C20.5585 32.7288 20.0805 33.2382 19.6038 33.7516C19.403 33.9692 19.2607 34.0277 19.0181 33.8018C18.5775 33.3835 18.1294 32.9801 17.6813 32.5766C17.4573 32.3749 17.2332 32.1731 17.0101 31.9695C15.6379 30.7313 14.2658 29.493 12.9188 28.2296C12.559 27.8866 12.2076 27.5101 11.9482 27.0917C11.4797 26.3471 11.6721 25.4351 12.4251 24.6152C13.1361 23.8357 13.8563 23.0608 14.5754 22.2871L14.5755 22.2871L14.5758 22.2867C14.8214 22.0225 15.0668 21.7585 15.3116 21.4944ZM17.3541 5.93251C17.3541 2.68623 14.7186 0.0339844 11.4974 0.0339844C8.24276 0.0339844 5.57378 2.69459 5.59052 5.93251C5.59052 9.10349 8.30133 11.8059 11.4807 11.7976C14.6768 11.7892 17.3541 9.12022 17.3541 5.93251Z" fill="#807F80"/>
</svg>
