<svg width="32" height="32" viewBox="0 0 32 32" fill="none" xmlns="http://www.w3.org/2000/svg">
<path d="M15.9517 6.12381L16.6939 4.84109C17.152 4.0394 18.1736 3.76911 18.9753 4.22722C19.777 4.68534 20.0473 5.70692 19.5891 6.50862L12.438 18.8868H17.6101C19.2868 18.8868 20.2259 20.8567 19.4975 22.2218H4.33403C3.40864 22.2218 2.6665 21.4797 2.6665 20.5543C2.6665 19.6289 3.40864 18.8868 4.33403 18.8868H8.5853L14.0277 9.45428L12.3281 6.50404C11.87 5.70234 12.1402 4.68992 12.9419 4.22264C13.7436 3.76453 14.7561 4.03482 15.2233 4.83651L15.9517 6.12381ZM9.51985 23.9398L7.91646 26.7205C7.45835 27.5222 6.43676 27.7925 5.63507 27.3344C4.83337 26.8762 4.56309 25.8547 5.0212 25.053L6.21229 22.9915C7.55913 22.5746 8.65402 22.8953 9.51985 23.9398ZM23.3273 18.896H27.6656C28.591 18.896 29.3332 19.6381 29.3332 20.5635C29.3332 21.4889 28.591 22.231 27.6656 22.231H25.256L26.8823 25.053C27.3404 25.8547 27.0701 26.8671 26.2684 27.3344C25.4667 27.7925 24.4543 27.5222 23.987 26.7205C21.2475 21.9699 19.1906 18.4149 17.8254 16.0465C16.4282 13.6368 17.4269 11.218 18.4118 10.398C19.5067 12.2762 21.1421 15.112 23.3273 18.896Z" fill="#FFDD33"/>
</svg>
