<svg width="32" height="32" viewBox="0 0 32 32" fill="none" xmlns="http://www.w3.org/2000/svg">
<path fill-rule="evenodd" clip-rule="evenodd" d="M6.84738 4.39132C7.78032 3.87685 8.88276 3.86485 9.82171 4.38383L21.455 10.805L17.7818 14.4783L6.84738 4.39132ZM5.3335 6.88859C5.3335 6.35912 5.48649 5.85965 5.75347 5.42318L16.7209 15.5401L5.72497 26.536C5.47299 26.1085 5.3335 25.6195 5.3335 25.1066V6.88859ZM26.3249 13.4927L22.8211 11.5593L18.8838 15.4951L23.709 19.9454L26.3264 18.501C27.2683 17.979 27.8323 17.043 27.8323 15.9961C27.8308 14.9492 27.2683 14.0132 26.3249 13.4927ZM6.79742 27.583L17.8233 16.5571L22.326 20.7104L9.82125 27.6115C9.35177 27.871 8.8388 28 8.32883 28C7.80086 28 7.27589 27.856 6.79742 27.583Z" fill="#FFDD33"/>
</svg>
