<svg width="32" height="32" viewBox="0 0 32 32" fill="none" xmlns="http://www.w3.org/2000/svg">
<path fill-rule="evenodd" clip-rule="evenodd" d="M14.6665 19.9999H9.33317C7.13317 19.9999 5.33317 18.1999 5.33317 15.9999C5.33317 13.7999 7.13317 11.9999 9.33317 11.9999H14.6665V9.33325H9.33317C5.65317 9.33325 2.6665 12.3199 2.6665 15.9999C2.6665 19.6799 5.65317 22.6666 9.33317 22.6666H14.6665V19.9999ZM22.6665 9.33325H17.3332V11.9999H22.6665C24.8665 11.9999 26.6665 13.7999 26.6665 15.9999C26.6665 18.1999 24.8665 19.9999 22.6665 19.9999H17.3332V22.6666H22.6665C26.3465 22.6666 29.3332 19.6799 29.3332 15.9999C29.3332 12.3199 26.3465 9.33325 22.6665 9.33325ZM21.3332 14.6666H10.6665V17.3333H21.3332V14.6666Z" fill="#FCFCFC"/>
</svg>
