<svg width="280" height="40" viewBox="0 0 280 40" fill="none" xmlns="http://www.w3.org/2000/svg">
<path d="M141.677 26.2275H128.503V39.4012H141.677V26.2275Z" fill="#FFDD33"/>
<path d="M11.6168 40C4.5509 40 0 35.3293 0 29.1018H5.26946C5.26946 32.6946 7.90419 34.6108 11.497 34.6108C15.5689 34.6108 18.2036 32.2156 18.2036 28.982C18.2036 26.4671 16.7665 24.7904 14.8503 23.7126C13.2934 22.7545 10.6587 21.4371 5.86827 19.0419C2.75449 17.485 0.598802 14.1317 0.598802 10.1796C0.598802 4.31138 5.1497 0 11.6168 0C18.3234 0 22.994 4.43114 22.994 10.5389H17.6048C17.6048 7.06587 14.9701 5.1497 11.6168 5.1497C8.38323 5.1497 5.86827 6.94611 5.86827 10.1796C5.86827 12.0958 6.94611 13.5329 8.86228 14.6108C11.976 16.1677 14.8503 17.485 17.3653 18.9222C21.3174 21.0778 23.4731 24.6707 23.4731 29.1018C23.5928 35.3293 18.4431 40 11.6168 40Z" fill="#FCFCFC"/>
<path d="M29.2217 39.4013V0.359375H50.8983V5.62884H34.6109V16.1678H49.8205V21.4372H34.6109V34.1318H51.0181V39.4013H29.2217Z" fill="#FCFCFC"/>
<path d="M74.4907 39.4013L62.874 12.2157V39.4013H57.6045V0.359375H63.4728L75.2093 27.9043V0.359375H80.4787V39.4013H74.4907Z" fill="#FCFCFC"/>
<path d="M97.7242 40C90.6583 40 86.1074 35.3293 86.1074 29.1018H91.3769C91.3769 32.6946 94.0116 34.6108 97.6044 34.6108C101.676 34.6108 104.311 32.2156 104.311 28.982C104.311 26.4671 102.874 24.7904 100.958 23.7126C99.4008 22.7545 96.7661 21.4371 91.9757 19.0419C88.8619 17.485 86.7062 14.1317 86.7062 10.1796C86.7062 4.31138 91.2571 0 97.7242 0C104.431 0 109.101 4.43114 109.101 10.5389H103.712C103.712 7.06587 101.077 5.1497 97.7242 5.1497C94.4907 5.1497 91.9757 6.94611 91.9757 10.1796C91.9757 12.0958 93.0535 13.5329 94.9697 14.6108C98.0835 16.1677 100.958 17.485 103.473 18.9222C107.425 21.0778 109.58 24.6707 109.58 29.1018C109.7 35.3293 104.551 40 97.7242 40Z" fill="#FCFCFC"/>
<path d="M120.718 0.359375V39.4013H115.329V0.359375H120.718Z" fill="#FCFCFC"/>
<path d="M149.821 18.9221V32.8143C149.821 37.3652 153.773 38.0837 155.569 38.0837C157.365 38.0837 161.318 37.1256 161.318 32.8143H162.874C162.874 35.3292 161.318 39.6406 155.449 39.6406C149.701 39.6406 148.264 35.3292 148.264 32.6945V18.9221C148.264 16.5268 149.821 12.0957 155.569 12.0957C161.318 12.0957 162.874 16.5268 162.874 18.9221H161.318C161.318 14.4909 157.605 13.6526 155.569 13.6526C153.773 13.6526 149.821 14.4909 149.821 18.9221Z" fill="#FCFCFC"/>
<path d="M174.491 39.7604C168.743 39.7604 167.306 35.3292 167.306 32.8143V18.9221C167.306 16.5268 168.863 12.0957 174.611 12.0957C180.36 12.0957 181.916 16.5268 181.916 18.9221V32.934C182.036 35.3292 180.36 39.7604 174.491 39.7604ZM180.479 18.9221C180.479 14.4909 176.527 13.5328 174.731 13.5328C172.934 13.5328 168.982 14.3712 168.982 18.9221V32.8143C168.982 37.2454 172.934 38.2035 174.731 38.2035C176.527 38.2035 180.479 37.2454 180.479 32.8143V18.9221Z" fill="#FCFCFC"/>
<path d="M199.761 39.4013L188.983 14.1319V39.4013H187.426V12.3354H189.941L200.839 37.8444V12.3354H202.396V39.4013H199.761Z" fill="#FCFCFC"/>
<path d="M220.479 39.4013L209.7 14.1319V39.4013H208.144V12.3354H210.659L221.557 37.8444V12.3354H223.114V39.4013H220.479Z" fill="#FCFCFC"/>
<path d="M228.862 39.4013V12.3354H242.874V13.8923H230.419V24.3115H241.916V25.8684H230.419V37.9642H242.874V39.5211H228.862V39.4013Z" fill="#FCFCFC"/>
<path d="M248.742 18.9221V32.8143C248.742 37.3652 252.695 38.0837 254.491 38.0837C256.287 38.0837 260.239 37.1256 260.239 32.8143H261.796C261.796 35.3292 260.239 39.6406 254.371 39.6406C248.623 39.6406 247.186 35.3292 247.186 32.6945V18.9221C247.186 16.5268 248.742 12.0957 254.491 12.0957C260.239 12.0957 261.796 16.5268 261.796 18.9221H260.239C260.239 14.4909 256.527 13.6526 254.491 13.6526C252.695 13.6526 248.742 14.4909 248.742 18.9221Z" fill="#FCFCFC"/>
<path d="M273.054 13.8923V39.4013H271.497V13.8923H264.551V12.3354H280V13.8923H273.054Z" fill="#FCFCFC"/>
</svg>
