<svg width="85" height="24" viewBox="0 0 85 24" fill="none" xmlns="http://www.w3.org/2000/svg">
<path d="M84.9335 15.7365H77.0293V23.6407H84.9335V15.7365Z" fill="#FFDD33"/>
<path d="M6.97006 24C2.73054 24 0 21.1976 0 17.4611H3.16168C3.16168 19.6168 4.74251 20.7665 6.8982 20.7665C9.34132 20.7665 10.9222 19.3293 10.9222 17.3892C10.9222 15.8802 10.0599 14.8743 8.91018 14.2275C7.97605 13.6527 6.39521 12.8623 3.52096 11.4251C1.6527 10.491 0.359281 8.47904 0.359281 6.10778C0.359281 2.58683 3.08982 0 6.97006 0C10.994 0 13.7964 2.65868 13.7964 6.32335H10.5629C10.5629 4.23952 8.98204 3.08982 6.97006 3.08982C5.02994 3.08982 3.52096 4.16766 3.52096 6.10778C3.52096 7.25748 4.16767 8.11976 5.31737 8.76647C7.18563 9.7006 8.91018 10.491 10.4192 11.3533C12.7904 12.6467 14.0838 14.8024 14.0838 17.4611C14.1557 21.1976 11.0659 24 6.97006 24Z" fill="#2A90CB"/>
<path d="M17.5332 23.6407V0.215569H30.5392V3.37725H20.6949V9.7006H29.8206V12.8623H20.6949V20.479H30.5392V23.6407H17.5332Z" fill="#2A90CB"/>
<path d="M44.6942 23.6407L37.7242 7.32934V23.6407H34.5625V0.215569H38.0835L45.1254 16.7425V0.215569H48.2871V23.6407H44.6942Z" fill="#2A90CB"/>
<path d="M58.6341 24C54.3946 24 51.6641 21.1976 51.6641 17.4611H54.8257C54.8257 19.6168 56.4066 20.7665 58.5623 20.7665C61.0054 20.7665 62.5862 19.3293 62.5862 17.3892C62.5862 15.8802 61.7239 14.8743 60.5742 14.2275C59.6401 13.6527 58.0593 12.8623 55.185 11.4251C53.3168 10.491 52.0233 8.47904 52.0233 6.10778C52.0233 2.58683 54.7539 0 58.6341 0C62.6581 0 65.4605 2.65868 65.4605 6.32335H62.2269C62.2269 4.23952 60.6461 3.08982 58.6341 3.08982C56.694 3.08982 55.185 4.16766 55.185 6.10778C55.185 7.25748 55.8317 8.11976 56.9814 8.76647C58.8497 9.7006 60.5742 10.491 62.0832 11.3533C64.4545 12.6467 65.7479 14.8024 65.7479 17.4611C65.8198 21.1976 62.7299 24 58.6341 24Z" fill="#2A90CB"/>
<path d="M72.4308 0.215569V23.6407H69.1973V0.215569H72.4308Z" fill="#2A90CB"/>
</svg>
