<svg width="224" height="32" viewBox="0 0 224 32" fill="none" xmlns="http://www.w3.org/2000/svg">
<path d="M113.342 20.982H102.803V31.521H113.342V20.982Z" fill="#FFDD33"/>
<path d="M9.29341 32C3.64072 32 0 28.2635 0 23.2814H4.21557C4.21557 26.1557 6.32336 27.6886 9.19761 27.6886C12.4551 27.6886 14.5629 25.7725 14.5629 23.1856C14.5629 21.1736 13.4132 19.8323 11.8802 18.9701C10.6347 18.2036 8.52695 17.1497 4.69461 15.2335C2.20359 13.988 0.479042 11.3054 0.479042 8.14371C0.479042 3.4491 4.11976 0 9.29341 0C14.6587 0 18.3952 3.54491 18.3952 8.43114H14.0838C14.0838 5.65269 11.976 4.11976 9.29341 4.11976C6.70659 4.11976 4.69461 5.55689 4.69461 8.14371C4.69461 9.67665 5.55689 10.8263 7.08982 11.6886C9.58084 12.9341 11.8802 13.988 13.8922 15.1377C17.0539 16.8623 18.7784 19.7365 18.7784 23.2814C18.8743 28.2635 14.7545 32 9.29341 32Z" fill="#2A90CB"/>
<path d="M23.377 31.521V0.287424H40.7183V4.50299H27.6883V12.9341H39.856V17.1497H27.6883V27.3054H40.8141V31.521H23.377Z" fill="#2A90CB"/>
<path d="M59.593 31.521L50.2996 9.77246V31.521H46.084V0.287424H50.7786L60.1678 22.3234V0.287424H64.3834V31.521H59.593Z" fill="#2A90CB"/>
<path d="M78.1792 32C72.5265 32 68.8857 28.2635 68.8857 23.2814H73.1013C73.1013 26.1557 75.2091 27.6886 78.0834 27.6886C81.3408 27.6886 83.4486 25.7725 83.4486 23.1856C83.4486 21.1736 82.2989 19.8323 80.766 18.9701C79.5205 18.2036 77.4127 17.1497 73.5804 15.2335C71.0893 13.988 69.3648 11.3054 69.3648 8.14371C69.3648 3.4491 73.0055 0 78.1792 0C83.5444 0 87.281 3.54491 87.281 8.43114H82.9696C82.9696 5.65269 80.8618 4.11976 78.1792 4.11976C75.5923 4.11976 73.5804 5.55689 73.5804 8.14371C73.5804 9.67665 74.4426 10.8263 75.9756 11.6886C78.4666 12.9341 80.766 13.988 82.778 15.1377C85.9396 16.8623 87.6642 19.7365 87.6642 23.2814C87.76 28.2635 83.6402 32 78.1792 32Z" fill="#2A90CB"/>
<path d="M96.5751 0.287424V31.521H92.2637V0.287424H96.5751Z" fill="#2A90CB"/>
<path d="M119.856 15.1377V26.2515C119.856 29.8922 123.018 30.4671 124.455 30.4671C125.892 30.4671 129.053 29.7006 129.053 26.2515H130.299C130.299 28.2635 129.053 31.7126 124.359 31.7126C119.76 31.7126 118.61 28.2635 118.61 26.1557V15.1377C118.61 13.2216 119.856 9.67664 124.455 9.67664C129.053 9.67664 130.299 13.2216 130.299 15.1377H129.053C129.053 11.5928 126.083 10.9222 124.455 10.9222C123.018 10.9222 119.856 11.5928 119.856 15.1377Z" fill="#2A90CB"/>
<path d="M139.592 31.8084C134.993 31.8084 133.844 28.2635 133.844 26.2515V15.1377C133.844 13.2216 135.089 9.67664 139.688 9.67664C144.287 9.67664 145.532 13.2216 145.532 15.1377V26.3473C145.628 28.2635 144.287 31.8084 139.592 31.8084ZM144.383 15.1377C144.383 11.5928 141.221 10.8263 139.784 10.8263C138.347 10.8263 135.185 11.497 135.185 15.1377V26.2515C135.185 29.7964 138.347 30.5629 139.784 30.5629C141.221 30.5629 144.383 29.7964 144.383 26.2515V15.1377Z" fill="#2A90CB"/>
<path d="M159.808 31.521L151.185 11.3054V31.521H149.939V9.86826H151.951L160.67 30.2754V9.86826H161.915V31.521H159.808Z" fill="#2A90CB"/>
<path d="M176.383 31.521L167.76 11.3054V31.521H166.515V9.86826H168.527L177.245 30.2754V9.86826H178.491V31.521H176.383Z" fill="#2A90CB"/>
<path d="M183.09 31.521V9.86826H194.299V11.1138H184.335V19.4491H193.533V20.6946H184.335V30.3713H194.299V31.6168H183.09V31.521Z" fill="#2A90CB"/>
<path d="M198.994 15.1377V26.2515C198.994 29.8922 202.155 30.4671 203.592 30.4671C205.029 30.4671 208.191 29.7006 208.191 26.2515H209.437C209.437 28.2635 208.191 31.7126 203.497 31.7126C198.898 31.7126 197.748 28.2635 197.748 26.1557V15.1377C197.748 13.2216 198.994 9.67664 203.592 9.67664C208.191 9.67664 209.437 13.2216 209.437 15.1377H208.191C208.191 11.5928 205.221 10.9222 203.592 10.9222C202.155 10.9222 198.994 11.5928 198.994 15.1377Z" fill="#2A90CB"/>
<path d="M218.443 11.1138V31.521H217.198V11.1138H211.641V9.86826H224V11.1138H218.443Z" fill="#2A90CB"/>
</svg>
