<svg width="183" height="72" viewBox="0 0 183 72" fill="none" xmlns="http://www.w3.org/2000/svg">
<path fill-rule="evenodd" clip-rule="evenodd" d="M85.3855 70.3903L85.4733 71.2045V71.2014H88.755V62.0739C88.755 59.9322 88.5761 58.2468 87.1455 57.0112C85.7714 55.8073 83.6537 55.5665 81.4764 55.5665C79.8638 55.5665 78.223 55.6869 76.6136 55.839V58.7315C77.9877 58.5826 79.4497 58.4907 80.7611 58.4907C83.9235 58.4907 84.8773 59.3937 84.8773 61.6842V62.1975C83.5345 62.0771 82.0443 61.9852 80.9995 61.9852C79.387 61.9852 78.1948 62.1056 77.0308 62.7392C75.5092 63.5535 74.8535 65.1185 74.8535 66.7755C74.8535 68.3722 75.3304 69.4874 76.3155 70.3903C77.2724 71.2933 78.5838 71.6259 79.867 71.6259C81.7129 71.6259 83.3091 71.0889 85.1957 70.4542L85.3855 70.3903ZM79.8074 54.0902C79.8074 53.0383 79.9862 52.5251 80.5823 52.5251C81.0616 52.5251 81.6743 52.7612 82.336 53.0162C83.1123 53.3153 83.9558 53.6403 84.7298 53.6403C86.7 53.6403 86.9385 51.6222 86.9385 49.3633H84.5824C84.5824 50.3866 84.4318 50.9283 83.8357 50.9283C83.3546 50.9283 82.741 50.6918 82.0791 50.4367C81.3036 50.1377 80.4616 49.8132 79.6881 49.8132C77.721 49.8132 77.4512 51.8313 77.4512 54.0902H79.8074ZM81.6552 64.5166C82.5494 64.5166 83.8639 64.5768 84.8773 64.6972V68.0998C83.5941 68.4926 82.2513 68.8538 81.0591 68.8538C79.4779 68.8538 78.612 67.9509 78.612 66.6551C78.612 65.2991 79.4183 64.5166 81.6552 64.5166ZM19.4078 49.5742H23.2855V71.2064H19.4078V49.5742ZM6.82995 65.0498C10.3186 65.0498 12.3171 64.6887 13.9297 63.0602C15.1219 61.9165 15.7493 60.079 15.7525 57.7599C15.7525 55.5295 15.216 53.6318 13.9924 52.4279C12.4708 50.8597 10.35 50.5587 7.45741 50.5587H0V71.1961H4.11616V65.0498H6.82995ZM4.11303 53.8124H7.1876C9.87315 53.8124 11.6018 54.6551 11.6018 57.7599C11.6018 60.532 10.259 61.7961 7.21584 61.7961H4.11303V53.8124ZM37.4845 71.2069L37.3935 70.3927L37.2037 70.4565C35.317 71.0912 33.7209 71.6282 31.8749 71.6282C30.5918 71.6282 29.2804 71.2956 28.3235 70.3927C27.3384 69.4897 26.8615 68.3745 26.8615 66.7778C26.8615 65.1208 27.5172 63.5558 29.0388 62.7416C30.2027 62.1079 31.3949 61.9875 33.0075 61.9875C34.0522 61.9875 35.5425 62.0794 36.8852 62.1998V61.6866C36.8852 59.396 35.9315 58.4931 32.7691 58.4931C31.4577 58.4931 29.9957 58.5849 28.6215 58.7338V55.8413C30.231 55.6892 31.8718 55.5688 33.4844 55.5688C35.6617 55.5688 37.7794 55.8096 39.1535 57.0135C40.5873 58.2491 40.7661 59.9346 40.7661 62.0762V71.2037H37.4845V71.2069ZM36.8884 64.6995C35.875 64.5791 34.5605 64.5189 33.6663 64.5189C31.4294 64.5189 30.6231 65.3014 30.6231 66.6574C30.6231 67.9532 31.489 68.8561 33.0703 68.8561C34.2624 68.8561 35.6052 68.4949 36.8884 68.1021V64.6995ZM55.057 61.864V71.2037H58.9348V61.6232C58.9348 59.8173 58.6963 58.4297 57.683 57.286C56.5786 55.9902 54.9692 55.5688 53.3566 55.5688C51.537 55.5688 49.6891 56.1423 47.7785 56.8044L47.6875 55.9902H44.4058V71.2037H48.2836V59.6653C49.7455 59.1235 50.9409 58.8225 52.0138 58.8225C53.8335 58.8225 55.057 59.6051 55.057 61.864ZM68.6418 71.6326C67.0888 71.6326 65.4793 71.1796 64.6134 69.4624C64.0456 68.4074 63.7789 66.9311 63.7789 65.0333V58.9473H61.4228V55.9946H63.7789L64.1679 51.3849H67.6598V55.9946H71.9548V58.9473H67.6598V64.4314C67.6598 65.4864 67.688 66.421 67.9296 67.1433C68.2276 68.1381 68.8551 68.5595 69.9594 68.5595C70.4697 68.5595 71.0712 68.4501 71.6501 68.3449L71.6502 68.3448L71.6507 68.3448C71.8154 68.3148 71.9783 68.2852 72.1367 68.2585V71.0909L71.9734 71.1267C70.8014 71.3838 69.6671 71.6326 68.6418 71.6326ZM93.8506 70.003C92.238 68.6787 91.5541 66.4166 91.5541 63.616C91.5541 60.8153 92.2411 58.5247 93.8506 57.1973C95.3126 55.9332 97.1918 55.5688 99.2813 55.5688C101.339 55.5688 103.219 55.93 104.712 57.1973C106.293 58.5216 107.008 60.7836 107.008 63.5843C107.008 66.3849 106.321 68.6755 104.712 69.9998C103.25 71.2639 101.371 71.6251 99.2813 71.6251C97.2232 71.6314 95.3439 71.2702 93.8506 70.003ZM103.04 63.6762C103.04 60.2736 101.935 58.5533 99.2813 58.5533C96.5079 58.5533 95.5228 60.0613 95.5228 63.5241C95.5228 66.9299 96.6271 68.6755 99.2813 68.6755C102.055 68.6787 103.04 67.1421 103.04 63.6762ZM113.584 64.4271V69.8225H121.133H121.446V70.1393V71.6727V71.9895H121.133H111.592H111.278V71.6727V55.5341V55.2173H111.592H120.759H121.073V55.5341V57.0675V57.3843H120.759H113.584V62.3329H120.129H120.442V62.6498V64.1103V64.4271H120.129H113.584ZM132.353 63.239L137.906 55.7242L138.279 55.2173H137.655H135.647H135.487L135.393 55.3503L130.891 61.6233L126.408 55.3503L126.314 55.2173H126.154H124.055H123.437L123.801 55.721L129.31 63.3087L123.289 71.4826L122.916 71.9895H123.54H125.548H125.708L125.802 71.8564L130.797 64.9213L135.792 71.8564L135.886 71.9895H136.046H138.166H138.791L138.421 71.4826L132.353 63.239ZM139.687 55.2173H140.001H152.876H153.19V55.5341V57.0675V57.3843H152.876H147.615V71.6727V71.9895H147.301H145.597H145.284V71.6727V57.3843H140.001H139.687V57.0675V55.5341V55.2173ZM164.746 63.8154C165.524 62.96 165.953 61.7498 165.953 60.4097C165.953 58.8446 165.505 57.609 164.623 56.7378C163.381 55.537 161.455 55.3755 159.732 55.3755H155.051V71.8277H157.043V65.3964H160.482L164.19 71.8277H166.465L162.606 65.0986C163.494 64.8356 164.197 64.4142 164.746 63.8154ZM163.892 60.4097C163.892 62.6939 162.656 63.6665 159.757 63.6665H157.043V57.1275H159.757C162.615 57.1306 163.892 58.1413 163.892 60.4097ZM176.405 55.4232L182.379 71.5586L182.542 71.9863H182.09H180.295H180.076L180.001 71.7772L178.372 67.2974H171.787L170.159 71.7772L170.083 71.9863H169.864H168.16H167.708L167.865 71.5586L173.839 55.4232L173.914 55.2173H174.131H176.113H176.33L176.405 55.4232ZM172.505 65.2255H177.626L175.087 58.1605L172.505 65.2255Z" fill="#807F80"/>
<path fill-rule="evenodd" clip-rule="evenodd" d="M106.209 39.603H75.8982C73.4371 39.603 71.4434 37.5896 71.4434 35.1044V4.49861C71.4434 2.01662 73.4371 0 75.8982 0H106.209C108.67 0 110.664 2.01332 110.664 4.49861V35.1077C110.664 37.5896 108.67 39.603 106.209 39.603ZM104.959 1.90825C107.054 1.90825 108.76 3.63112 108.76 5.74676V33.8474C108.76 35.963 107.054 37.6859 104.959 37.6859H77.1285C75.0335 37.6859 73.3274 35.963 73.3274 33.8474V5.74346C73.3274 3.62782 75.0335 1.90495 77.1285 1.90495H104.959V1.90825ZM104.959 1.24814H77.1285C74.6674 1.24814 72.6737 3.26146 72.6737 5.74676V33.8474C72.6737 36.3294 74.6674 38.346 77.1285 38.346H104.956C107.413 38.346 109.41 36.3327 109.41 33.8474V5.74346C109.41 3.26146 107.417 1.24814 104.959 1.24814ZM95.0725 16.6004H103.91V24.7593H95.0725V33.6806H86.993V31.9115V24.7593H78.1585V16.6004H86.993V7.60318L95.0725 5.90671V7.67579V16.6004Z" fill="#807F80"/>
</svg>
