<svg width="464" height="465" viewBox="0 0 464 465" fill="none" xmlns="http://www.w3.org/2000/svg">
<g style="mix-blend-mode:multiply" opacity="0.75" clip-path="url(#clip0)">
<path d="M50.6478 314.297C50.1032 324.102 41.7527 331.546 31.9499 331.002C22.1471 330.457 14.7042 322.105 15.2488 312.3C15.7934 302.495 24.1439 295.051 33.9467 295.595C43.7496 296.14 51.1924 304.492 50.6478 314.297Z" fill="#F7F7F7"/>
<path d="M215.48 448.296C214.936 458.1 206.585 465.545 196.782 465C186.98 464.455 179.537 456.103 180.081 446.298C180.626 436.493 188.976 429.049 198.779 429.594C208.582 430.139 216.025 438.491 215.48 448.296Z" fill="#F7F7F7"/>
<path d="M113.277 402.177C112.733 411.982 104.382 419.426 94.5793 418.881C84.7764 418.337 77.3336 409.984 77.8782 400.18C78.4228 390.375 86.7733 382.93 96.5761 383.475C106.379 384.02 113.822 392.372 113.277 402.177Z" fill="#F7F7F7"/>
<path d="M52.4635 260.916C51.7374 274.715 39.9377 285.246 26.1411 284.52C12.3446 283.793 1.81562 271.991 2.54176 258.192C3.26789 244.393 15.0676 233.862 28.8641 234.588C42.6607 235.314 53.1896 247.116 52.4635 260.916Z" fill="#F7F7F7"/>
<path d="M172.276 425.599C171.549 439.399 159.75 449.93 145.953 449.203C132.157 448.477 121.628 436.675 122.354 422.876C123.08 409.077 134.88 398.545 148.676 399.272C162.473 399.998 173.002 411.8 172.276 425.599Z" fill="#F7F7F7"/>
<path d="M89.4967 360.053C88.7706 373.852 76.9709 384.383 63.1743 383.657C49.3778 382.931 38.8488 371.128 39.575 357.329C40.3011 343.53 52.1008 332.999 65.8973 333.725C79.6939 334.451 90.2228 346.253 89.4967 360.053Z" fill="#F7F7F7"/>
<path d="M231.637 0C110.009 0 9.98435 93.8715 0 212.981H30.1346C39.9374 110.576 126.529 29.959 231.637 29.959C343.28 29.959 434.047 120.744 434.047 232.409C434.047 344.075 343.28 434.859 231.637 434.859V464.818C359.8 464.818 464 360.597 464 232.228C464 104.221 359.8 0 231.637 0Z" fill="#F7F7F7"/>
</g>
<defs>
<clipPath id="clip0">
<rect width="464" height="465" fill="white"/>
</clipPath>
</defs>
</svg>
