<svg width="256" height="53" viewBox="0 0 256 53" fill="none" xmlns="http://www.w3.org/2000/svg">
<path d="M66.9063 37.1748L68.4416 32.5618H83.0901C83.9155 32.5618 84.5542 32.3647 85.0062 31.9704C85.4582 31.5762 85.6842 31.0341 85.6842 30.3441C85.6842 29.6147 85.4582 29.0528 85.0062 28.6586C84.5542 28.2643 83.9155 28.0672 83.0901 28.0672H73.3916C72.3304 28.0672 71.3772 27.9193 70.5322 27.6236C69.7068 27.3082 68.9993 26.8844 68.4097 26.3521C67.8201 25.8001 67.3681 25.1496 67.0537 24.4005C66.7393 23.6316 66.582 22.7938 66.582 21.887C66.582 20.9999 66.7294 20.1818 67.0242 19.4327C67.319 18.6638 67.7514 18.0034 68.3213 17.4515C68.9108 16.8995 69.6282 16.4658 70.4732 16.1504C71.3379 15.835 72.3304 15.6772 73.4506 15.6772H88.9564L87.421 20.2902H73.4506C72.802 20.2902 72.2911 20.4676 71.9177 20.8225C71.5443 21.1773 71.3576 21.6899 71.3576 22.3601C71.3576 23.0304 71.5443 23.5429 71.9177 23.8978C72.3107 24.2526 72.8217 24.43 73.4506 24.43H83.0901C85.3501 24.43 87.0697 24.9426 88.2489 25.9677C89.428 26.9928 90.0176 28.5797 90.0176 30.7285C90.0176 31.655 89.8702 32.5126 89.5754 33.3011C89.3003 34.0896 88.8679 34.7698 88.2784 35.3414C87.7084 35.9131 86.9911 36.3666 86.1264 36.7017C85.2617 37.0171 84.2496 37.1748 83.0901 37.1748H66.9063Z" fill="#807F80"/>
<path d="M102.418 37.1748C100.885 37.1748 99.4704 36.8988 98.1733 36.3468C96.8959 35.7751 95.7855 35.0063 94.8422 34.0404C93.8989 33.0547 93.1619 31.8916 92.6313 30.5511C92.1007 29.2106 91.8354 27.7616 91.8354 26.2042C91.8354 24.6272 92.1007 23.1881 92.6313 21.887C93.1619 20.5859 93.8989 19.4819 94.8422 18.5751C95.7855 17.6486 96.8959 16.9389 98.1733 16.4461C99.4704 15.9335 100.885 15.6772 102.418 15.6772H107.724C109.297 15.6772 110.731 15.9335 112.028 16.4461C113.345 16.9586 114.475 17.6782 115.418 18.6047C116.362 19.5312 117.089 20.645 117.6 21.9461C118.13 23.2275 118.396 24.6469 118.396 26.2042C118.396 27.7616 118.13 29.2106 117.6 30.5511C117.069 31.8916 116.332 33.0547 115.389 34.0404C114.446 35.0063 113.316 35.7751 111.999 36.3468C110.702 36.8988 109.277 37.1748 107.724 37.1748H102.418ZM107.724 32.5618C108.609 32.5618 109.424 32.414 110.171 32.1183C110.918 31.8029 111.557 31.379 112.087 30.8468C112.638 30.2948 113.06 29.6443 113.355 28.8951C113.65 28.146 113.797 27.3279 113.797 26.4408C113.797 25.5537 113.65 24.7356 113.355 23.9865C113.06 23.2177 112.638 22.5671 112.087 22.0348C111.557 21.4829 110.918 21.059 110.171 20.7633C109.424 20.4479 108.609 20.2902 107.724 20.2902H102.418C101.554 20.2902 100.758 20.4479 100.03 20.7633C99.3033 21.059 98.6745 21.4829 98.1438 22.0348C97.6132 22.5671 97.1907 23.2177 96.8763 23.9865C96.5815 24.7356 96.4341 25.5537 96.4341 26.4408C96.4341 27.3279 96.5815 28.146 96.8763 28.8951C97.171 29.6443 97.5837 30.2948 98.1144 30.8468C98.645 31.379 99.2739 31.8029 100.001 32.1183C100.748 32.414 101.554 32.5618 102.418 32.5618H107.724Z" fill="#807F80"/>
<path d="M120.651 37.1748V15.6772H125.25V32.5618H139.105V37.1748H120.651Z" fill="#807F80"/>
<path d="M141.224 37.1748V15.6772H145.822V37.1748H141.224Z" fill="#807F80"/>
<path d="M148.976 37.1748V15.6772H161.593C163.126 15.6772 164.541 15.9335 165.838 16.4461C167.135 16.9586 168.255 17.6782 169.199 18.6047C170.142 19.5312 170.879 20.645 171.41 21.9461C171.94 23.2275 172.205 24.6469 172.205 26.2042C172.205 27.7616 171.94 29.2106 171.41 30.5511C170.879 31.8916 170.142 33.0547 169.199 34.0404C168.255 35.0063 167.135 35.7751 165.838 36.3468C164.541 36.8988 163.126 37.1748 161.593 37.1748H148.976ZM161.593 32.5618C162.458 32.5618 163.254 32.414 163.981 32.1183C164.728 31.8029 165.366 31.379 165.897 30.8468C166.428 30.2948 166.84 29.6443 167.135 28.8951C167.45 28.146 167.607 27.3279 167.607 26.4408C167.607 25.5537 167.45 24.7356 167.135 23.9865C166.84 23.2177 166.428 22.5671 165.897 22.0348C165.366 21.4829 164.728 21.059 163.981 20.7633C163.254 20.4479 162.458 20.2902 161.593 20.2902H153.545V32.5618H161.593Z" fill="#807F80"/>
<path d="M177.918 35.0457C177.918 35.716 177.682 36.2877 177.211 36.7608C176.759 37.2142 176.189 37.4409 175.501 37.4409C174.833 37.4409 174.273 37.2142 173.821 36.7608C173.369 36.2877 173.143 35.716 173.143 35.0457C173.143 34.3755 173.369 33.8137 173.821 33.3602C174.273 32.8871 174.833 32.6506 175.501 32.6506C176.189 32.6506 176.759 32.8871 177.211 33.3602C177.682 33.8137 177.918 34.3755 177.918 35.0457Z" fill="#807F80"/>
<path d="M189.482 37.1748C187.949 37.1748 186.534 36.8988 185.237 36.3468C183.959 35.7751 182.849 35.0063 181.906 34.0404C180.962 33.0547 180.226 31.8916 179.695 30.5511C179.164 29.2106 178.899 27.7616 178.899 26.2042C178.899 24.6272 179.164 23.1881 179.695 21.887C180.226 20.5859 180.962 19.4819 181.906 18.5751C182.849 17.6486 183.959 16.9389 185.237 16.4461C186.534 15.9335 187.949 15.6772 189.482 15.6772H194.788C196.36 15.6772 197.795 15.9335 199.092 16.4461C200.409 16.9586 201.539 17.6782 202.482 18.6047C203.425 19.5312 204.152 20.645 204.663 21.9461C205.194 23.2275 205.459 24.6469 205.459 26.2042C205.459 27.7616 205.194 29.2106 204.663 30.5511C204.133 31.8916 203.396 33.0547 202.452 34.0404C201.509 35.0063 200.379 35.7751 199.062 36.3468C197.765 36.8988 196.341 37.1748 194.788 37.1748H189.482ZM194.788 32.5618C195.672 32.5618 196.488 32.414 197.235 32.1183C197.982 31.8029 198.62 31.379 199.151 30.8468C199.701 30.2948 200.124 29.6443 200.418 28.8951C200.713 28.146 200.861 27.3279 200.861 26.4408C200.861 25.5537 200.713 24.7356 200.418 23.9865C200.124 23.2177 199.701 22.5671 199.151 22.0348C198.62 21.4829 197.982 21.059 197.235 20.7633C196.488 20.4479 195.672 20.2902 194.788 20.2902H189.482C188.617 20.2902 187.821 20.4479 187.094 20.7633C186.367 21.059 185.738 21.4829 185.207 22.0348C184.677 22.5671 184.254 23.2177 183.94 23.9865C183.645 24.7356 183.498 25.5537 183.498 26.4408C183.498 27.3279 183.645 28.146 183.94 28.8951C184.235 29.6443 184.647 30.2948 185.178 30.8468C185.709 31.379 186.337 31.8029 187.065 32.1183C187.811 32.414 188.617 32.5618 189.482 32.5618H194.788Z" fill="#807F80"/>
<path d="M214.966 31.379L216.502 26.9139H222.955C224.075 26.9139 224.95 26.6182 225.579 26.0268C226.208 25.4157 226.522 24.6075 226.522 23.6021C226.522 22.577 226.208 21.7687 225.579 21.1773C224.95 20.5859 224.075 20.2902 222.955 20.2902H212.284V37.1748H207.715V15.6772H222.955C224.213 15.6772 225.343 15.8645 226.345 16.2391C227.347 16.5939 228.193 17.1065 228.88 17.7767C229.568 18.447 230.089 19.2651 230.443 20.2311C230.816 21.197 231.003 22.2714 231.003 23.4542C231.003 24.637 230.816 25.7114 230.443 26.6774C230.089 27.6433 229.568 28.4812 228.88 29.1908C228.193 29.8808 227.347 30.4229 226.345 30.8172C225.343 31.1918 224.213 31.379 222.955 31.379H214.966Z" fill="#807F80"/>
<path d="M232.889 37.1748L234.424 32.5618H249.072C249.898 32.5618 250.536 32.3647 250.989 31.9704C251.441 31.5762 251.667 31.0341 251.667 30.3441C251.667 29.6147 251.441 29.0528 250.989 28.6586C250.536 28.2643 249.898 28.0672 249.072 28.0672H239.374C238.313 28.0672 237.359 27.9193 236.514 27.6236C235.689 27.3082 234.982 26.8844 234.392 26.3521C233.802 25.8001 233.35 25.1496 233.036 24.4005C232.722 23.6316 232.564 22.7938 232.564 21.887C232.564 20.9999 232.712 20.1818 233.006 19.4327C233.301 18.6638 233.734 18.0034 234.304 17.4515C234.893 16.8995 235.61 16.4658 236.455 16.1504C237.32 15.835 238.313 15.6772 239.433 15.6772H254.939L253.403 20.2902H239.433C238.784 20.2902 238.273 20.4676 237.9 20.8225C237.527 21.1773 237.34 21.6899 237.34 22.3601C237.34 23.0304 237.527 23.5429 237.9 23.8978C238.293 24.2526 238.804 24.43 239.433 24.43H249.072C251.332 24.43 253.052 24.9426 254.231 25.9677C255.41 26.9928 256 28.5797 256 30.7285C256 31.655 255.852 32.5126 255.558 33.3011C255.283 34.0896 254.85 34.7698 254.261 35.3414C253.691 35.9131 252.973 36.3666 252.109 36.7017C251.244 37.0171 250.232 37.1748 249.072 37.1748H232.889Z" fill="#807F80"/>
<path fill-rule="evenodd" clip-rule="evenodd" d="M43.3425 13.7405C43.3681 14.5787 43.3384 15.378 43.2574 16.1384L38.3616 13.3718C38.3616 13.3718 38.0857 5.53314 29.9704 4.97983C23.7917 4.55855 21.6707 10.8818 21.4863 13.464C21.4401 14.1101 21.4112 15.1062 21.3939 16.2368V40.2077C19.4471 40.8053 17.8462 40.6131 16.4141 40.2077V13.4642H16.4154C16.5134 6.0113 22.5446 0 29.9704 0C34.8581 0 39.0631 2.64356 41.3938 6.57631C42.6332 8.66771 43.3425 11.1237 43.3425 13.7405Z" fill="#807F80"/>
<path fill-rule="evenodd" clip-rule="evenodd" d="M36.131 45.1745C35.4324 44.8345 34.7853 44.468 34.1884 44.0777C34.1412 44.0468 34.0942 44.0158 34.0476 43.9846L38.7729 40.9359C38.7729 40.9359 45.8415 44.3354 50.1038 37.4074C53.3489 32.1327 48.7363 27.3154 46.5358 25.9518C45.987 25.6117 45.1223 25.1251 44.1334 24.5863L22.9002 13.4385C23.2761 11.437 24.1905 10.1089 25.2151 9.02936L48.7164 21.368C48.721 21.3704 48.7256 21.3729 48.7303 21.3753C48.7349 21.3777 48.7395 21.3802 48.7442 21.3826L48.8935 21.461L48.893 21.4621C55.4461 25.0133 57.9647 33.1476 54.5129 39.7223C52.1091 44.3007 47.4405 46.8272 42.5834 46.7975C40.4083 46.7842 38.1954 46.2583 36.1311 45.1745L36.1311 45.1745L36.131 45.1745Z" fill="#807F80"/>
<path fill-rule="evenodd" clip-rule="evenodd" d="M11.7474 22.8087C12.3988 22.3849 13.0464 22.019 13.6885 21.7084C13.7393 21.6838 13.7901 21.6595 13.8408 21.6356L14.0197 27.2564C14.0197 27.2564 7.46404 31.5648 11.2069 38.7867C14.0565 44.2851 20.5623 42.8123 22.8648 41.6283C23.4363 41.3345 24.2932 40.8472 25.2586 40.2806L45.7676 27.8124C47.2896 29.1654 47.957 30.6333 48.3545 32.0676L25.731 45.8213C25.7065 45.8364 25.6819 45.8515 25.6572 45.8665C25.6326 45.8815 25.6079 45.8964 25.5832 45.9112L25.4993 45.9622L25.4988 45.9614C19.0786 49.7496 10.8085 47.719 6.95105 41.3739C3.30488 35.3764 5.04905 27.7492 10.5893 23.5923C10.9586 23.3152 11.3448 23.0535 11.7474 22.8087Z" fill="#807F80"/>
</svg>
