<svg width="183" height="23" viewBox="0 0 183 23" fill="none" xmlns="http://www.w3.org/2000/svg">
<path fill-rule="evenodd" clip-rule="evenodd" d="M85.3855 21.3903L85.4733 22.2045V22.2014H88.755V13.0739C88.755 10.9322 88.5761 9.24679 87.1455 8.01121C85.7714 6.80731 83.6537 6.56653 81.4764 6.56653C79.8638 6.56653 78.223 6.68692 76.6136 6.83899V9.73152C77.9877 9.58262 79.4497 9.49074 80.7611 9.49074C83.9235 9.49074 84.8773 10.3937 84.8773 12.6842V13.1975C83.5345 13.0771 82.0443 12.9852 80.9995 12.9852C79.387 12.9852 78.1948 13.1056 77.0308 13.7392C75.5092 14.5535 74.8535 16.1185 74.8535 17.7755C74.8535 19.3722 75.3304 20.4874 76.3155 21.3903C77.2724 22.2933 78.5838 22.6259 79.867 22.6259C81.7129 22.6259 83.3091 22.0889 85.1957 21.4542L85.3855 21.3903ZM79.8074 5.09017C79.8074 4.03834 79.9862 3.5251 80.5823 3.5251C81.0616 3.5251 81.6743 3.76122 82.336 4.01616C83.1123 4.31527 83.9558 4.64029 84.7298 4.64029C86.7 4.64029 86.9385 2.62218 86.9385 0.363281H84.5824C84.5824 1.3866 84.4318 1.92835 83.8357 1.92835C83.3546 1.92835 82.741 1.69184 82.0791 1.43666C81.3036 1.13773 80.4616 0.813159 79.6881 0.813159C77.721 0.813159 77.4512 2.83127 77.4512 5.09017H79.8074ZM81.6552 15.5166C82.5494 15.5166 83.8639 15.5768 84.8773 15.6972V19.0998C83.5941 19.4926 82.2513 19.8538 81.0591 19.8538C79.4779 19.8538 78.612 18.9509 78.612 17.6551C78.612 16.2991 79.4183 15.5166 81.6552 15.5166ZM19.4078 0.574235H23.2855V22.2064H19.4078V0.574235ZM6.82995 16.0498C10.3186 16.0498 12.3171 15.6887 13.9297 14.0602C15.1219 12.9165 15.7493 11.079 15.7525 8.75991C15.7525 6.52953 15.216 4.6318 13.9924 3.4279C12.4708 1.85966 10.35 1.55869 7.45741 1.55869H0V22.1961H4.11616V16.0498H6.82995ZM4.11303 4.81239H7.1876C9.87315 4.81239 11.6018 5.65511 11.6018 8.75991C11.6018 11.532 10.259 12.7961 7.21584 12.7961H4.11303V4.81239ZM37.4845 22.2069L37.3935 21.3927L37.2037 21.4565C35.317 22.0912 33.7209 22.6282 31.8749 22.6282C30.5918 22.6282 29.2804 22.2956 28.3235 21.3927C27.3384 20.4897 26.8615 19.3745 26.8615 17.7778C26.8615 16.1208 27.5172 14.5558 29.0388 13.7416C30.2027 13.1079 31.3949 12.9875 33.0075 12.9875C34.0522 12.9875 35.5425 13.0794 36.8852 13.1998V12.6866C36.8852 10.396 35.9315 9.49306 32.7691 9.49306C31.4577 9.49306 29.9957 9.58493 28.6215 9.73384V6.84131C30.231 6.68924 31.8718 6.56885 33.4844 6.56885C35.6617 6.56885 37.7794 6.80963 39.1535 8.01353C40.5873 9.24911 40.7661 10.9346 40.7661 13.0762V22.2037H37.4845V22.2069ZM36.8884 15.6995C35.875 15.5791 34.5605 15.5189 33.6663 15.5189C31.4294 15.5189 30.6231 16.3014 30.6231 17.6574C30.6231 18.9532 31.489 19.8561 33.0703 19.8561C34.2624 19.8561 35.6052 19.4949 36.8884 19.1021V15.6995ZM55.057 12.864V22.2037H58.9348V12.6232C58.9348 10.8173 58.6963 9.42969 57.683 8.28599C56.5786 6.99021 54.9692 6.56885 53.3566 6.56885C51.537 6.56885 49.6891 7.14228 47.7785 7.80443L47.6875 6.99021H44.4058V22.2037H48.2836V10.6653C49.7455 10.1235 50.9409 9.82254 52.0138 9.82254C53.8335 9.82254 55.057 10.6051 55.057 12.864ZM68.6418 22.6326C67.0888 22.6326 65.4793 22.1796 64.6134 20.4624C64.0456 19.4074 63.7789 17.9311 63.7789 16.0333V9.94731H61.4228V6.99459H63.7789L64.1679 2.38492H67.6598V6.99459H71.9548V9.94731H67.6598V15.4314C67.6598 16.4864 67.688 17.421 67.9296 18.1433C68.2276 19.1381 68.8551 19.5595 69.9594 19.5595C70.4697 19.5595 71.0712 19.4501 71.6501 19.3449L71.6502 19.3448L71.6507 19.3448C71.8154 19.3148 71.9783 19.2852 72.1367 19.2585V22.0909L71.9734 22.1267C70.8014 22.3838 69.6671 22.6326 68.6418 22.6326ZM93.8506 21.003C92.238 19.6787 91.5541 17.4166 91.5541 14.616C91.5541 11.8153 92.2411 9.52474 93.8506 8.19728C95.3126 6.93319 97.1918 6.56885 99.2813 6.56885C101.339 6.56885 103.219 6.93002 104.712 8.19728C106.293 9.52157 107.008 11.7836 107.008 14.5843C107.008 17.3849 106.321 19.6755 104.712 20.9998C103.25 22.2639 101.371 22.6251 99.2813 22.6251C97.2232 22.6314 95.3439 22.2702 93.8506 21.003ZM103.04 14.6762C103.04 11.2736 101.935 9.55325 99.2813 9.55325C96.5079 9.55325 95.5228 11.0613 95.5228 14.5241C95.5228 17.9299 96.6271 19.6755 99.2813 19.6755C102.055 19.6787 103.04 18.1421 103.04 14.6762ZM113.584 15.4271V20.8225H121.133H121.446V21.1393V22.6727V22.9895H121.133H111.592H111.278V22.6727V6.53407V6.21726H111.592H120.759H121.073V6.53407V8.06746V8.38428H120.759H113.584V13.3329H120.129H120.442V13.6498V15.1103V15.4271H120.129H113.584ZM132.353 14.239L137.906 6.72416L138.279 6.21726H137.655H135.647H135.487L135.393 6.35032L130.891 12.6233L126.408 6.35032L126.314 6.21726H126.154H124.055H123.437L123.801 6.72099L129.31 14.3087L123.289 22.4826L122.916 22.9895H123.54H125.548H125.708L125.802 22.8564L130.797 15.9213L135.792 22.8564L135.886 22.9895H136.046H138.166H138.791L138.421 22.4826L132.353 14.239ZM139.687 6.21726H140.001H152.876H153.19V6.53407V8.06746V8.38428H152.876H147.615V22.6727V22.9895H147.301H145.597H145.284V22.6727V8.38428H140.001H139.687V8.06746V6.53407V6.21726ZM164.746 14.8154C165.524 13.96 165.953 12.7498 165.953 11.4097C165.953 9.84461 165.505 8.60902 164.623 7.73778C163.381 6.53705 161.455 6.37547 159.732 6.37547H155.051V22.8277H157.043V16.3964H160.482L164.19 22.8277H166.465L162.606 16.0986C163.494 15.8356 164.197 15.4142 164.746 14.8154ZM163.892 11.4097C163.892 13.6939 162.656 14.6665 159.757 14.6665H157.043V8.12746H159.757C162.615 8.13063 163.892 9.14127 163.892 11.4097ZM176.405 6.42319L182.379 22.5586L182.542 22.9863H182.09H180.295H180.076L180.001 22.7772L178.372 18.2974H171.787L170.159 22.7772L170.083 22.9863H169.864H168.16H167.708L167.865 22.5586L173.839 6.42319L173.914 6.21726H174.131H176.113H176.33L176.405 6.42319ZM172.505 16.2255H177.626L175.087 9.16047L172.505 16.2255Z" fill="#807F80"/>
</svg>
