<svg width="64" height="64" viewBox="0 0 64 64" fill="none" xmlns="http://www.w3.org/2000/svg">
<path fill-rule="evenodd" clip-rule="evenodd" d="M50.8955 13.1221C48.4355 10.6459 45.5085 8.68241 42.2843 7.34548C39.06 6.00855 35.6025 5.32471 32.112 5.33358C17.4757 5.33358 5.56078 17.2456 5.55486 31.8878C5.55486 36.5674 6.77652 41.1346 9.09858 45.1634L5.33301 58.9212L19.4103 55.2266C23.3042 57.3463 27.6667 58.4578 32.1002 58.4597H32.112C46.7454 58.4597 58.6603 46.5478 58.6662 31.9055C58.6763 28.4165 57.9947 24.9601 56.6609 21.736C55.3271 18.512 53.3676 15.5842 50.8955 13.1221ZM32.112 53.9783H32.1032C28.1498 53.9787 24.2692 52.9151 20.8686 50.899L20.064 50.4198L11.7105 52.6117L13.9379 44.4683L13.4143 43.6341C11.2041 40.1153 10.034 36.0432 10.0392 31.8878C10.0451 19.7185 19.9457 9.81795 32.1209 9.81795C35.0205 9.81151 37.8926 10.3802 40.571 11.4912C43.2493 12.6021 45.6807 14.2332 47.7245 16.2901C49.7792 18.3372 51.4078 20.7712 52.5162 23.4515C53.6245 26.1318 54.1907 29.0051 54.1819 31.9055C54.1759 44.0749 44.2754 53.9783 32.112 53.9783ZM44.2192 37.4459C43.5537 37.1117 40.2939 35.5084 39.6846 35.2866C39.0782 35.0647 38.6374 34.9553 38.1937 35.6179C37.75 36.2805 36.4781 37.7743 36.0906 38.218C35.7031 38.6617 35.3156 38.7149 34.653 38.3836C33.9904 38.0523 31.8517 37.3513 29.3167 35.0913C27.3437 33.3313 26.0126 31.1601 25.6251 30.4946C25.2376 29.829 25.5837 29.4711 25.9179 29.1398C26.2167 28.844 26.5805 28.3648 26.9118 27.9773C27.2431 27.5898 27.3526 27.3147 27.5744 26.871C27.7963 26.4273 27.6868 26.0398 27.5182 25.7085C27.3526 25.3742 26.0244 22.1086 25.4713 20.7804C24.9359 19.4937 24.3886 19.6652 23.9804 19.6475C23.5576 19.6302 23.1345 19.6223 22.7114 19.6238C22.375 19.6324 22.0439 19.7104 21.739 19.8529C21.4341 19.9954 21.1619 20.1994 20.9396 20.4521C20.3302 21.1176 18.6175 22.7209 18.6175 25.9865C18.6175 29.2522 20.9958 32.4084 21.3271 32.8521C21.6584 33.2958 26.0067 39.9957 32.6622 42.8709C34.2477 43.5542 35.4842 43.9625 36.4455 44.2701C38.034 44.7759 39.4805 44.702 40.6252 44.5334C41.9001 44.344 44.5505 42.9301 45.1037 41.3801C45.6568 39.8301 45.6568 38.5019 45.4912 38.2239C45.3255 37.9458 44.8789 37.7772 44.2192 37.4459Z" fill="#185477"/>
</svg>
